G04 (created by PCBNEW (2013-may-18)-stable) date Fri 27 Mar 2015 08:27:45 PM IRDT*
%MOIN*%
G04 Gerber Fmt 3.4, Leading zero omitted, Abs format*
%FSLAX34Y34*%
G01*
G70*
G90*
G04 APERTURE LIST*
%ADD10C,0.00590551*%
%ADD11C,0.005*%
%ADD12C,0.012*%
%ADD13C,0.0031*%
%ADD14C,2.75591e-07*%
%ADD15C,0.0045*%
%ADD16C,0.0047*%
%ADD17C,0.0039*%
%ADD18C,0.0075*%
%ADD19C,0.008*%
G04 APERTURE END LIST*
G54D10*
G54D11*
X65750Y-58050D02*
X65750Y-58950D01*
X65750Y-58950D02*
X65250Y-58950D01*
X65250Y-58950D02*
X65250Y-58050D01*
X65250Y-58050D02*
X65750Y-58050D01*
X66550Y-60750D02*
X67450Y-60750D01*
X67450Y-60750D02*
X67450Y-61250D01*
X67450Y-61250D02*
X66550Y-61250D01*
X66550Y-61250D02*
X66550Y-60750D01*
X63750Y-58050D02*
X63750Y-58950D01*
X63750Y-58950D02*
X63250Y-58950D01*
X63250Y-58950D02*
X63250Y-58050D01*
X63250Y-58050D02*
X63750Y-58050D01*
X66750Y-58050D02*
X66750Y-58950D01*
X66750Y-58950D02*
X66250Y-58950D01*
X66250Y-58950D02*
X66250Y-58050D01*
X66250Y-58050D02*
X66750Y-58050D01*
G54D12*
X59150Y-57900D02*
X71950Y-57900D01*
X71950Y-57900D02*
X71950Y-50900D01*
X71950Y-50900D02*
X59150Y-50900D01*
X59150Y-50900D02*
X59150Y-57900D01*
X61950Y-50900D02*
X61950Y-53900D01*
X61950Y-53900D02*
X69150Y-53900D01*
X69150Y-53900D02*
X69150Y-50900D01*
X62550Y-50900D02*
X62550Y-47500D01*
X62550Y-47500D02*
X68550Y-47500D01*
X68550Y-47500D02*
X68550Y-50900D01*
G54D13*
X65525Y-59862D02*
G75*
G03X65525Y-59862I-62J0D01*
G74*
G01*
X64500Y-60200D02*
X64500Y-59800D01*
X65525Y-60200D02*
X65525Y-59800D01*
X64500Y-59800D02*
X65525Y-59800D01*
X65525Y-60200D02*
X64500Y-60200D01*
X68025Y-59362D02*
G75*
G03X68025Y-59362I-62J0D01*
G74*
G01*
X67000Y-59700D02*
X67000Y-59300D01*
X68025Y-59700D02*
X68025Y-59300D01*
X67000Y-59300D02*
X68025Y-59300D01*
X68025Y-59700D02*
X67000Y-59700D01*
G54D11*
X62900Y-59850D02*
X64100Y-59850D01*
X64100Y-59850D02*
X64100Y-60150D01*
X64100Y-60150D02*
X62900Y-60150D01*
X62900Y-60150D02*
X62900Y-59850D01*
G54D12*
X63000Y-62500D02*
X63000Y-61500D01*
X63000Y-61500D02*
X69000Y-61500D01*
X69000Y-61500D02*
X69000Y-62500D01*
X69000Y-62500D02*
X63000Y-62500D01*
X64000Y-62500D02*
X64000Y-61500D01*
G54D14*
X0Y0D02*
X0Y0D01*
X0Y0D01*
X0Y0D01*
X0Y0D01*
X0Y0D01*
X0Y0D01*
X0Y0D01*
X0Y0D01*
X0Y0D01*
X0Y0D01*
X0Y0D01*
X0Y0D01*
X0Y0D01*
X0Y0D01*
X0Y0D01*
X0Y0D01*
X0Y0D01*
X0Y0D01*
X0Y0D01*
X0Y0D02*
X0Y0D01*
X0Y0D02*
X0Y0D01*
X0Y0D02*
X0Y0D01*
X0Y0D01*
X0Y0D01*
X0Y0D01*
X0Y0D01*
X0Y0D01*
X0Y0D01*
X0Y0D01*
X0Y0D01*
X0Y0D02*
X0Y0D01*
X0Y0D01*
X0Y0D01*
X0Y0D01*
X0Y0D01*
X0Y0D01*
X0Y0D01*
X0Y0D01*
X0Y0D01*
X0Y0D01*
X0Y0D01*
X0Y0D01*
X0Y0D01*
X0Y0D01*
X0Y0D01*
X0Y0D01*
X0Y0D01*
X0Y0D01*
X0Y0D02*
X0Y0D01*
X0Y0D01*
X0Y0D02*
X0Y0D01*
X0Y0D02*
X0Y0D01*
X0Y0D01*
X0Y0D02*
X0Y0D01*
X0Y0D01*
X0Y0D02*
X0Y0D01*
X0Y0D02*
X0Y0D01*
X0Y0D01*
X0Y0D02*
X0Y0D01*
X0Y0D01*
X0Y0D02*
X0Y0D01*
X0Y0D02*
X0Y0D01*
X0Y0D01*
X0Y0D02*
X0Y0D01*
X0Y0D01*
G54D15*
X65580Y-58530D02*
X65485Y-58590D01*
X65580Y-58632D02*
X65380Y-58632D01*
X65380Y-58564D01*
X65390Y-58547D01*
X65400Y-58538D01*
X65419Y-58530D01*
X65447Y-58530D01*
X65466Y-58538D01*
X65476Y-58547D01*
X65485Y-58564D01*
X65485Y-58632D01*
X65380Y-58375D02*
X65380Y-58410D01*
X65390Y-58427D01*
X65400Y-58435D01*
X65428Y-58452D01*
X65466Y-58461D01*
X65542Y-58461D01*
X65561Y-58452D01*
X65571Y-58444D01*
X65580Y-58427D01*
X65580Y-58392D01*
X65571Y-58375D01*
X65561Y-58367D01*
X65542Y-58358D01*
X65495Y-58358D01*
X65476Y-58367D01*
X65466Y-58375D01*
X65457Y-58392D01*
X65457Y-58427D01*
X65466Y-58444D01*
X65476Y-58452D01*
X65495Y-58461D01*
X66970Y-61080D02*
X66910Y-60985D01*
X66867Y-61080D02*
X66867Y-60880D01*
X66935Y-60880D01*
X66952Y-60890D01*
X66961Y-60900D01*
X66970Y-60919D01*
X66970Y-60947D01*
X66961Y-60966D01*
X66952Y-60976D01*
X66935Y-60985D01*
X66867Y-60985D01*
X67124Y-60947D02*
X67124Y-61080D01*
X67081Y-60871D02*
X67038Y-61014D01*
X67150Y-61014D01*
X63580Y-58530D02*
X63485Y-58590D01*
X63580Y-58632D02*
X63380Y-58632D01*
X63380Y-58564D01*
X63390Y-58547D01*
X63400Y-58538D01*
X63419Y-58530D01*
X63447Y-58530D01*
X63466Y-58538D01*
X63476Y-58547D01*
X63485Y-58564D01*
X63485Y-58632D01*
X63380Y-58367D02*
X63380Y-58452D01*
X63476Y-58461D01*
X63466Y-58452D01*
X63457Y-58435D01*
X63457Y-58392D01*
X63466Y-58375D01*
X63476Y-58367D01*
X63495Y-58358D01*
X63542Y-58358D01*
X63561Y-58367D01*
X63571Y-58375D01*
X63580Y-58392D01*
X63580Y-58435D01*
X63571Y-58452D01*
X63561Y-58461D01*
X66580Y-58530D02*
X66485Y-58590D01*
X66580Y-58632D02*
X66380Y-58632D01*
X66380Y-58564D01*
X66390Y-58547D01*
X66400Y-58538D01*
X66419Y-58530D01*
X66447Y-58530D01*
X66466Y-58538D01*
X66476Y-58547D01*
X66485Y-58564D01*
X66485Y-58632D01*
X66380Y-58470D02*
X66380Y-58358D01*
X66457Y-58418D01*
X66457Y-58392D01*
X66466Y-58375D01*
X66476Y-58367D01*
X66495Y-58358D01*
X66542Y-58358D01*
X66561Y-58367D01*
X66571Y-58375D01*
X66580Y-58392D01*
X66580Y-58444D01*
X66571Y-58461D01*
X66561Y-58470D01*
G54D12*
X65800Y-52642D02*
X65800Y-53071D01*
X65771Y-53157D01*
X65714Y-53214D01*
X65628Y-53242D01*
X65571Y-53242D01*
X66400Y-53242D02*
X66057Y-53242D01*
X66228Y-53242D02*
X66228Y-52642D01*
X66171Y-52728D01*
X66114Y-52785D01*
X66057Y-52814D01*
X65257Y-55742D02*
X65257Y-55142D01*
X65400Y-55142D01*
X65485Y-55171D01*
X65542Y-55228D01*
X65571Y-55285D01*
X65600Y-55400D01*
X65600Y-55485D01*
X65571Y-55600D01*
X65542Y-55657D01*
X65485Y-55714D01*
X65400Y-55742D01*
X65257Y-55742D01*
X66057Y-55428D02*
X66142Y-55457D01*
X66171Y-55485D01*
X66200Y-55542D01*
X66200Y-55628D01*
X66171Y-55685D01*
X66142Y-55714D01*
X66085Y-55742D01*
X65857Y-55742D01*
X65857Y-55142D01*
X66057Y-55142D01*
X66114Y-55171D01*
X66142Y-55200D01*
X66171Y-55257D01*
X66171Y-55314D01*
X66142Y-55371D01*
X66114Y-55400D01*
X66057Y-55428D01*
X65857Y-55428D01*
X66485Y-55742D02*
X66600Y-55742D01*
X66657Y-55714D01*
X66685Y-55685D01*
X66742Y-55600D01*
X66771Y-55485D01*
X66771Y-55257D01*
X66742Y-55200D01*
X66714Y-55171D01*
X66657Y-55142D01*
X66542Y-55142D01*
X66485Y-55171D01*
X66457Y-55200D01*
X66428Y-55257D01*
X66428Y-55400D01*
X66457Y-55457D01*
X66485Y-55485D01*
X66542Y-55514D01*
X66657Y-55514D01*
X66714Y-55485D01*
X66742Y-55457D01*
X66771Y-55400D01*
G54D16*
X64334Y-60260D02*
X64034Y-60260D01*
X64034Y-60189D01*
X64048Y-60146D01*
X64077Y-60117D01*
X64105Y-60103D01*
X64163Y-60089D01*
X64205Y-60089D01*
X64263Y-60103D01*
X64291Y-60117D01*
X64320Y-60146D01*
X64334Y-60189D01*
X64334Y-60260D01*
X64034Y-59989D02*
X64034Y-59803D01*
X64148Y-59903D01*
X64148Y-59860D01*
X64163Y-59831D01*
X64177Y-59817D01*
X64205Y-59803D01*
X64277Y-59803D01*
X64305Y-59817D01*
X64320Y-59831D01*
X64334Y-59860D01*
X64334Y-59946D01*
X64320Y-59974D01*
X64305Y-59989D01*
G54D17*
X64552Y-60079D02*
X64440Y-60079D01*
X64496Y-60079D02*
X64496Y-59882D01*
X64477Y-59910D01*
X64459Y-59929D01*
X64440Y-59939D01*
X64637Y-60079D02*
X64637Y-59882D01*
X64749Y-60079D01*
X64749Y-59882D01*
X64928Y-59948D02*
X64928Y-60079D01*
X64881Y-59873D02*
X64834Y-60014D01*
X64956Y-60014D01*
X65068Y-59882D02*
X65087Y-59882D01*
X65106Y-59892D01*
X65115Y-59901D01*
X65125Y-59920D01*
X65134Y-59957D01*
X65134Y-60004D01*
X65125Y-60042D01*
X65115Y-60060D01*
X65106Y-60070D01*
X65087Y-60079D01*
X65068Y-60079D01*
X65050Y-60070D01*
X65040Y-60060D01*
X65031Y-60042D01*
X65021Y-60004D01*
X65021Y-59957D01*
X65031Y-59920D01*
X65040Y-59901D01*
X65050Y-59892D01*
X65068Y-59882D01*
X65256Y-59882D02*
X65275Y-59882D01*
X65293Y-59892D01*
X65303Y-59901D01*
X65312Y-59920D01*
X65322Y-59957D01*
X65322Y-60004D01*
X65312Y-60042D01*
X65303Y-60060D01*
X65293Y-60070D01*
X65275Y-60079D01*
X65256Y-60079D01*
X65237Y-60070D01*
X65228Y-60060D01*
X65218Y-60042D01*
X65209Y-60004D01*
X65209Y-59957D01*
X65218Y-59920D01*
X65228Y-59901D01*
X65237Y-59892D01*
X65256Y-59882D01*
X65509Y-60079D02*
X65397Y-60079D01*
X65453Y-60079D02*
X65453Y-59882D01*
X65434Y-59910D01*
X65415Y-59929D01*
X65397Y-59939D01*
G54D16*
X66834Y-59760D02*
X66534Y-59760D01*
X66534Y-59689D01*
X66548Y-59646D01*
X66577Y-59617D01*
X66605Y-59603D01*
X66663Y-59589D01*
X66705Y-59589D01*
X66763Y-59603D01*
X66791Y-59617D01*
X66820Y-59646D01*
X66834Y-59689D01*
X66834Y-59760D01*
X66563Y-59474D02*
X66548Y-59460D01*
X66534Y-59431D01*
X66534Y-59360D01*
X66548Y-59331D01*
X66563Y-59317D01*
X66591Y-59303D01*
X66620Y-59303D01*
X66663Y-59317D01*
X66834Y-59489D01*
X66834Y-59303D01*
G54D17*
X67343Y-59382D02*
X67249Y-59382D01*
X67240Y-59476D01*
X67249Y-59467D01*
X67268Y-59457D01*
X67315Y-59457D01*
X67334Y-59467D01*
X67343Y-59476D01*
X67353Y-59495D01*
X67353Y-59542D01*
X67343Y-59560D01*
X67334Y-59570D01*
X67315Y-59579D01*
X67268Y-59579D01*
X67249Y-59570D01*
X67240Y-59560D01*
X67409Y-59382D02*
X67475Y-59579D01*
X67540Y-59382D01*
X67709Y-59579D02*
X67596Y-59579D01*
X67653Y-59579D02*
X67653Y-59382D01*
X67634Y-59410D01*
X67615Y-59429D01*
X67596Y-59439D01*
G54D18*
X63471Y-59200D02*
X63442Y-59185D01*
X63414Y-59157D01*
X63371Y-59114D01*
X63342Y-59100D01*
X63314Y-59100D01*
X63328Y-59171D02*
X63300Y-59157D01*
X63271Y-59128D01*
X63257Y-59071D01*
X63257Y-58971D01*
X63271Y-58914D01*
X63300Y-58885D01*
X63328Y-58871D01*
X63385Y-58871D01*
X63414Y-58885D01*
X63442Y-58914D01*
X63457Y-58971D01*
X63457Y-59071D01*
X63442Y-59128D01*
X63414Y-59157D01*
X63385Y-59171D01*
X63328Y-59171D01*
X63742Y-59171D02*
X63571Y-59171D01*
X63657Y-59171D02*
X63657Y-58871D01*
X63628Y-58914D01*
X63600Y-58942D01*
X63571Y-58957D01*
G54D19*
X65704Y-61311D02*
X65704Y-60911D01*
X65857Y-60911D01*
X65895Y-60930D01*
X65914Y-60950D01*
X65933Y-60988D01*
X65933Y-61045D01*
X65914Y-61083D01*
X65895Y-61102D01*
X65857Y-61121D01*
X65704Y-61121D01*
X66314Y-61311D02*
X66085Y-61311D01*
X66200Y-61311D02*
X66200Y-60911D01*
X66161Y-60969D01*
X66123Y-61007D01*
X66085Y-61026D01*
M02*
