G04 (created by PCBNEW (2013-may-18)-stable) date Fri 27 Mar 2015 08:27:45 PM IRDT*
%MOIN*%
G04 Gerber Fmt 3.4, Leading zero omitted, Abs format*
%FSLAX34Y34*%
G01*
G70*
G90*
G04 APERTURE LIST*
%ADD10C,0.00590551*%
%ADD11C,0.005*%
%ADD12C,0.0031*%
%ADD13C,0.0045*%
%ADD14C,0.0047*%
%ADD15C,0.0039*%
G04 APERTURE END LIST*
G54D10*
G54D11*
X64250Y-58050D02*
X64250Y-58950D01*
X64250Y-58950D02*
X64750Y-58950D01*
X64750Y-58950D02*
X64750Y-58050D01*
X64750Y-58050D02*
X64250Y-58050D01*
G54D12*
X63700Y-60037D02*
G75*
G03X63700Y-60037I-62J0D01*
G74*
G01*
X63300Y-61000D02*
X63700Y-61000D01*
X63300Y-59975D02*
X63700Y-59975D01*
X63700Y-61000D02*
X63700Y-59975D01*
X63300Y-59975D02*
X63300Y-61000D01*
G54D13*
X64580Y-58470D02*
X64485Y-58410D01*
X64580Y-58367D02*
X64380Y-58367D01*
X64380Y-58435D01*
X64390Y-58452D01*
X64400Y-58461D01*
X64419Y-58470D01*
X64447Y-58470D01*
X64466Y-58461D01*
X64476Y-58452D01*
X64485Y-58435D01*
X64485Y-58367D01*
X64400Y-58538D02*
X64390Y-58547D01*
X64380Y-58564D01*
X64380Y-58607D01*
X64390Y-58624D01*
X64400Y-58632D01*
X64419Y-58641D01*
X64438Y-58641D01*
X64466Y-58632D01*
X64580Y-58530D01*
X64580Y-58641D01*
G54D14*
X63682Y-61408D02*
X63682Y-61108D01*
X63611Y-61108D01*
X63568Y-61122D01*
X63539Y-61151D01*
X63525Y-61179D01*
X63511Y-61237D01*
X63511Y-61279D01*
X63525Y-61337D01*
X63539Y-61365D01*
X63568Y-61394D01*
X63611Y-61408D01*
X63682Y-61408D01*
X63225Y-61408D02*
X63396Y-61408D01*
X63311Y-61408D02*
X63311Y-61108D01*
X63339Y-61151D01*
X63368Y-61179D01*
X63396Y-61194D01*
G54D15*
X63382Y-60393D02*
X63382Y-60299D01*
X63476Y-60290D01*
X63467Y-60299D01*
X63457Y-60318D01*
X63457Y-60365D01*
X63467Y-60384D01*
X63476Y-60393D01*
X63495Y-60403D01*
X63542Y-60403D01*
X63560Y-60393D01*
X63570Y-60384D01*
X63579Y-60365D01*
X63579Y-60318D01*
X63570Y-60299D01*
X63560Y-60290D01*
X63382Y-60459D02*
X63579Y-60525D01*
X63382Y-60590D01*
X63579Y-60759D02*
X63579Y-60646D01*
X63579Y-60703D02*
X63382Y-60703D01*
X63410Y-60684D01*
X63429Y-60665D01*
X63439Y-60646D01*
M02*
