G04 (created by PCBNEW (2013-may-18)-stable) date Fri 27 Mar 2015 08:27:45 PM IRDT*
%MOIN*%
G04 Gerber Fmt 3.4, Leading zero omitted, Abs format*
%FSLAX34Y34*%
G01*
G70*
G90*
G04 APERTURE LIST*
%ADD10C,0.00590551*%
%ADD11R,0.045X0.025*%
%ADD12R,0.025X0.045*%
%ADD13C,0.15*%
%ADD14R,0.06X0.06*%
%ADD15C,0.06*%
%ADD16R,0.0315X0.0394*%
%ADD17R,0.036X0.036*%
%ADD18C,0.01*%
G04 APERTURE END LIST*
G54D10*
G54D11*
X65500Y-58200D03*
X65500Y-58800D03*
G54D12*
X66700Y-61000D03*
X67300Y-61000D03*
G54D11*
X63500Y-58200D03*
X63500Y-58800D03*
X66500Y-58200D03*
X66500Y-58800D03*
G54D13*
X70550Y-56500D03*
X60550Y-56500D03*
G54D14*
X67700Y-57500D03*
G54D15*
X66600Y-57500D03*
X65500Y-57500D03*
X64450Y-57500D03*
X63350Y-57500D03*
X63900Y-56500D03*
X65000Y-56500D03*
X66050Y-56500D03*
X67150Y-56500D03*
G54D16*
X65000Y-60433D03*
X64625Y-59567D03*
X65375Y-59567D03*
X67500Y-59933D03*
X67125Y-59067D03*
X67875Y-59067D03*
G54D17*
X63150Y-59600D03*
X63850Y-59600D03*
X63500Y-60400D03*
G54D14*
X63500Y-62000D03*
G54D15*
X64500Y-62000D03*
X65500Y-62000D03*
X66500Y-62000D03*
X67500Y-62000D03*
X68500Y-62000D03*
G54D18*
X63000Y-57850D02*
X63350Y-57500D01*
X63000Y-58000D02*
X63000Y-57850D01*
X63000Y-59450D02*
X63150Y-59600D01*
X63000Y-58000D02*
X63000Y-59450D01*
X67875Y-59067D02*
X68067Y-59067D01*
X68500Y-59500D02*
X68500Y-62000D01*
X68067Y-59067D02*
X68500Y-59500D01*
X63500Y-58200D02*
X63000Y-58200D01*
X63000Y-58200D02*
X63000Y-58000D01*
X66050Y-56500D02*
X67150Y-56500D01*
X66050Y-56500D02*
X66050Y-57950D01*
X66300Y-58200D02*
X66500Y-58200D01*
X66050Y-57950D02*
X66300Y-58200D01*
X63500Y-58800D02*
X63500Y-59250D01*
X63500Y-59250D02*
X63850Y-59600D01*
X64625Y-59567D02*
X63883Y-59567D01*
X63883Y-59567D02*
X63850Y-59600D01*
X65500Y-58200D02*
X65500Y-57500D01*
X65500Y-58800D02*
X65500Y-59442D01*
X65500Y-59442D02*
X65375Y-59567D01*
X66500Y-62000D02*
X66000Y-62500D01*
X63100Y-60400D02*
X63500Y-60400D01*
X62500Y-61000D02*
X63100Y-60400D01*
X62500Y-62000D02*
X62500Y-61000D01*
X63000Y-62500D02*
X62500Y-62000D01*
X66000Y-62500D02*
X63000Y-62500D01*
X66700Y-61000D02*
X66700Y-61800D01*
X66700Y-61800D02*
X66500Y-62000D01*
X67125Y-59067D02*
X66500Y-59067D01*
X66500Y-59067D02*
X66500Y-59000D01*
X66500Y-58800D02*
X66500Y-59000D01*
X66500Y-59000D02*
X66500Y-59500D01*
X66000Y-61500D02*
X65500Y-62000D01*
X66000Y-60000D02*
X66000Y-61500D01*
X66500Y-59500D02*
X66000Y-60000D01*
X67300Y-61000D02*
X67300Y-61800D01*
X67300Y-61800D02*
X67500Y-62000D01*
M02*
