<?xml version="1.0" standalone="no"?>
 <!DOCTYPE svg PUBLIC "-//W3C//DTD SVG 1.1//EN" 
 "http://www.w3.org/Graphics/SVG/1.1/DTD/svg11.dtd"> 
<svg xmlns="http://www.w3.org/2000/svg" version="1.1" 
    width="29.7002cm" height="21.0007cm" viewBox="0 0 116930 82680 ">
<title>SVG Picture created as Ponyser.svg date 2015/03/28 01:55:51 </title>
  <desc>Picture generated by Eeschema-SVG </desc>
<g style="fill:#000000; fill-opacity:1;stroke:#000000; stroke-opacity:1;
stroke-linecap:round; stroke-linejoin:round; "
 transform="translate(0 0) scale(1 1)">
</g>
<g style="fill:#A00000; fill-opacity:0.0; 
stroke:#A00000; stroke-width:100; stroke-opacity:1; 
stroke-linecap:round; stroke-linejoin:round;">
<path d="M4000 4000
L112930 4000
L112930 78680
L4000 78680
L4000 4000
" />
<path d="M4700 4700
L112230 4700
L112230 77980
L4700 77980
L4700 4700
" />
<path d="M25780 4000
L25780 4700
" />
<path d="M15030 4550
L14750 4550
" />
<path d="M14890 4550
L14890 4050
L14840 4120
L14790 4170
L14750 4200
" />
<path d="M25780 78680
L25780 77980
" />
<path d="M15030 78530
L14750 78530
" />
<path d="M14890 78530
L14890 78030
L14840 78100
L14790 78150
L14750 78180
" />
<path d="M47560 4000
L47560 4700
" />
<path d="M36530 4100
L36550 4080
L36600 4050
L36720 4050
L36760 4080
L36790 4100
L36810 4150
L36810 4200
L36790 4270
L36500 4550
L36810 4550
" />
<path d="M47560 78680
L47560 77980
" />
<path d="M36530 78080
L36550 78060
L36600 78030
L36720 78030
L36760 78060
L36790 78080
L36810 78130
L36810 78180
L36790 78250
L36500 78530
L36810 78530
" />
<path d="M69340 4000
L69340 4700
" />
<path d="M58280 4050
L58590 4050
L58420 4240
L58500 4240
L58540 4270
L58570 4290
L58590 4340
L58590 4460
L58570 4500
L58540 4530
L58500 4550
L58350 4550
L58310 4530
L58280 4500
" />
<path d="M69340 78680
L69340 77980
" />
<path d="M58280 78030
L58590 78030
L58420 78220
L58500 78220
L58540 78250
L58570 78270
L58590 78320
L58590 78440
L58570 78480
L58540 78510
L58500 78530
L58350 78530
L58310 78510
L58280 78480
" />
<path d="M91120 4000
L91120 4700
" />
<path d="M80320 4220
L80320 4550
" />
<path d="M80200 4030
L80090 4390
L80390 4390
" />
<path d="M91120 78680
L91120 77980
" />
<path d="M80320 78200
L80320 78530
" />
<path d="M80200 78010
L80090 78370
L80390 78370
" />
<path d="M102130 4050
L101890 4050
L101870 4290
L101890 4270
L101940 4240
L102060 4240
L102100 4270
L102130 4290
L102150 4340
L102150 4460
L102130 4500
L102100 4530
L102060 4550
L101940 4550
L101890 4530
L101870 4500
" />
<path d="M102130 78030
L101890 78030
L101870 78270
L101890 78250
L101940 78220
L102060 78220
L102100 78250
L102130 78270
L102150 78320
L102150 78440
L102130 78480
L102100 78510
L102060 78530
L101940 78530
L101890 78510
L101870 78480
" />
<path d="M4000 28890
L4700 28890
" />
<path d="M4240 16510
L4470 16510
" />
<path d="M4190 16650
L4350 16150
L4520 16650
" />
<path d="M112930 28890
L112230 28890
" />
<path d="M112470 16510
L112700 16510
" />
<path d="M112420 16650
L112580 16150
L112750 16650
" />
<path d="M4000 53780
L4700 53780
" />
<path d="M4390 41280
L4460 41300
L4480 41330
L4500 41380
L4500 41450
L4480 41490
L4460 41520
L4410 41540
L4220 41540
L4220 41040
L4390 41040
L4430 41070
L4460 41090
L4480 41140
L4480 41190
L4460 41230
L4430 41260
L4390 41280
L4220 41280
" />
<path d="M112930 53780
L112230 53780
" />
<path d="M112620 41280
L112690 41300
L112710 41330
L112730 41380
L112730 41450
L112710 41490
L112690 41520
L112640 41540
L112450 41540
L112450 41040
L112620 41040
L112660 41070
L112690 41090
L112710 41140
L112710 41190
L112690 41230
L112660 41260
L112620 41280
L112450 41280
" />
<path d="M4500 66380
L4480 66410
L4410 66430
L4360 66430
L4290 66410
L4240 66360
L4220 66310
L4200 66220
L4200 66150
L4220 66050
L4240 66000
L4290 65960
L4360 65930
L4410 65930
L4480 65960
L4500 65980
" />
<path d="M112730 66380
L112710 66410
L112640 66430
L112590 66430
L112520 66410
L112470 66360
L112450 66310
L112430 66220
L112430 66150
L112450 66050
L112470 66000
L112520 65960
L112590 65930
L112640 65930
L112710 65960
L112730 65980
" />
<path d="M79380 76420
L79450 75820
L79600 75820
L79680 75850
L79730 75910
L79750 75970
L79770 76080
L79760 76170
L79720 76280
L79680 76340
L79610 76390
L79530 76420
L79380 76420
" />
<path d="M80240 76420
L80280 76110
L80250 76050
L80200 76020
L80090 76020
L80020 76050
" />
<path d="M80240 76390
L80180 76420
L80040 76420
L79980 76390
L79960 76340
L79970 76280
L80000 76220
L80070 76190
L80210 76190
L80270 76170
" />
<path d="M80490 76020
L80720 76020
" />
<path d="M80590 75820
L80530 76340
L80550 76390
L80610 76420
L80670 76420
" />
<path d="M81090 76390
L81030 76420
L80920 76420
L80860 76390
L80840 76340
L80870 76110
L80900 76050
L80970 76020
L81080 76020
L81130 76050
L81160 76110
L81150 76170
L80850 76220
" />
<path d="M81370 76370
L81400 76390
L81370 76420
L81340 76390
L81370 76370
L81370 76420
" />
<path d="M81410 76050
L81440 76080
L81410 76110
L81380 76080
L81410 76050
L81410 76110
" />
<path d="M82160 75880
L82190 75850
L82250 75820
L82390 75820
L82450 75850
L82480 75880
L82500 75940
L82490 75990
L82450 76080
L82070 76420
L82440 76420
" />
<path d="M82710 75820
L83110 75820
L82780 76420
" />
<path d="M83720 76420
L83770 76020
" />
<path d="M83760 76080
L83790 76050
L83860 76020
L83940 76020
L83990 76050
L84020 76110
L83980 76420
" />
<path d="M84020 76110
L84050 76050
L84120 76020
L84200 76020
L84250 76050
L84280 76110
L84240 76420
" />
<path d="M84780 76420
L84820 76110
L84790 76050
L84740 76020
L84630 76020
L84560 76050
" />
<path d="M84780 76390
L84720 76420
L84580 76420
L84520 76390
L84500 76340
L84510 76280
L84540 76220
L84610 76190
L84750 76190
L84810 76170
" />
<path d="M85060 76420
L85110 76020
" />
<path d="M85090 76140
L85130 76080
L85160 76050
L85230 76020
L85280 76020
" />
<path d="M85930 75880
L85960 75850
L86020 75820
L86160 75820
L86220 75850
L86250 75880
L86270 75940
L86260 75990
L86220 76080
L85840 76420
L86210 76420
" />
<path d="M86650 75820
L86700 75820
L86760 75850
L86790 75880
L86810 75940
L86820 76050
L86810 76190
L86760 76310
L86720 76370
L86690 76390
L86630 76420
L86580 76420
L86520 76390
L86490 76370
L86470 76310
L86460 76190
L86470 76050
L86520 75940
L86560 75880
L86590 75850
L86650 75820
" />
<path d="M87350 76420
L87000 76420
" />
<path d="M87180 76420
L87250 75820
L87180 75910
L87110 75970
L87050 75990
" />
<path d="M87960 75820
L87670 75820
L87610 76110
L87640 76080
L87700 76050
L87840 76050
L87900 76080
L87930 76110
L87950 76170
L87930 76310
L87890 76370
L87860 76390
L87800 76420
L87660 76420
L87600 76390
L87570 76370
" />
<path d="M70970 77620
L70970 77020
" />
<path d="M71320 77620
L71060 77280
" />
<path d="M71320 77020
L70970 77370
" />
<path d="M71570 77620
L71570 77220
" />
<path d="M71570 77020
L71540 77050
L71570 77080
L71600 77050
L71570 77020
L71570 77080
" />
<path d="M72210 77570
L72180 77590
L72090 77620
L72030 77620
L71950 77590
L71890 77540
L71860 77480
L71830 77370
L71830 77280
L71860 77170
L71890 77110
L71950 77050
L72030 77020
L72090 77020
L72180 77050
L72210 77080
" />
<path d="M72720 77620
L72720 77310
L72690 77250
L72630 77220
L72520 77220
L72460 77250
" />
<path d="M72720 77590
L72660 77620
L72520 77620
L72460 77590
L72430 77540
L72430 77480
L72460 77420
L72520 77390
L72660 77390
L72720 77370
" />
<path d="M73260 77620
L73260 77020
" />
<path d="M73260 77590
L73200 77620
L73090 77620
L73030 77590
L73000 77570
L72970 77510
L72970 77340
L73000 77280
L73030 77250
L73090 77220
L73200 77220
L73260 77250
" />
<path d="M74000 77310
L74200 77310
" />
<path d="M74290 77620
L74000 77620
L74000 77020
L74290 77020
" />
<path d="M74540 77570
L74570 77590
L74540 77620
L74510 77590
L74540 77570
L74540 77620
" />
<path d="M74830 77620
L74830 77020
L74980 77020
L75060 77050
L75120 77110
L75150 77170
L75180 77280
L75180 77370
L75150 77480
L75120 77540
L75060 77590
L74980 77620
L74830 77620
" />
<path d="M75430 77570
L75460 77590
L75430 77620
L75400 77590
L75430 77570
L75430 77620
" />
<path d="M75690 77450
L75980 77450
" />
<path d="M75640 77620
L75840 77020
L76040 77620
" />
<path d="M76230 77570
L76260 77590
L76230 77620
L76200 77590
L76230 77570
L76230 77620
" />
<path d="M104530 76420
L104360 76140
" />
<path d="M104180 76420
L104250 75820
L104480 75820
L104540 75850
L104570 75880
L104590 75940
L104580 76020
L104540 76080
L104510 76110
L104440 76140
L104210 76140
" />
<path d="M105010 76390
L104950 76420
L104840 76420
L104780 76390
L104760 76340
L104790 76110
L104820 76050
L104890 76020
L105000 76020
L105050 76050
L105080 76110
L105070 76170
L104770 76220
" />
<path d="M105290 76020
L105380 76420
L105570 76020
" />
<path d="M105750 76370
L105780 76390
L105750 76420
L105720 76390
L105750 76370
L105750 76420
" />
<path d="M105790 76050
L105820 76080
L105790 76110
L105760 76080
L105790 76050
L105790 76110
" />
<path d="M70940 76390
L71030 76420
L71170 76420
L71230 76390
L71260 76370
L71290 76310
L71290 76250
L71260 76190
L71230 76170
L71170 76140
L71060 76110
L71000 76080
L70970 76050
L70940 75990
L70940 75940
L70970 75880
L71000 75850
L71060 75820
L71200 75820
L71290 75850
" />
<path d="M71540 76420
L71540 76020
" />
<path d="M71540 75820
L71510 75850
L71540 75880
L71570 75850
L71540 75820
L71540 75880
" />
<path d="M71780 76020
L72090 76020
L71780 76420
L72090 76420
" />
<path d="M72550 76390
L72490 76420
L72380 76420
L72320 76390
L72290 76340
L72290 76110
L72320 76050
L72380 76020
L72490 76020
L72550 76050
L72580 76110
L72580 76170
L72290 76220
" />
<path d="M72830 76370
L72860 76390
L72830 76420
L72800 76390
L72830 76370
L72830 76420
" />
<path d="M72830 76050
L72860 76080
L72830 76110
L72800 76080
L72830 76050
L72830 76110
" />
<path d="M73550 76250
L73840 76250
" />
<path d="M73500 76420
L73700 75820
L73900 76420
" />
<path d="M74350 76020
L74350 76420
" />
<path d="M74210 75790
L74060 76220
L74440 76220
" />
<path d="M104170 77620
L104170 77020
" />
<path d="M104720 77620
L104720 77020
" />
<path d="M104720 77590
L104660 77620
L104550 77620
L104490 77590
L104460 77570
L104430 77510
L104430 77340
L104460 77280
L104490 77250
L104550 77220
L104660 77220
L104720 77250
" />
<path d="M105000 77570
L105030 77590
L105000 77620
L104970 77590
L105000 77570
L105000 77620
" />
<path d="M105000 77250
L105030 77280
L105000 77310
L104970 77280
L105000 77250
L105000 77310
" />
<path d="M106070 77620
L105720 77620
" />
<path d="M105900 77620
L105900 77020
L105840 77110
L105780 77170
L105720 77190
" />
<path d="M106750 76990
L106240 77770
" />
<path d="M107270 77620
L106920 77620
" />
<path d="M107100 77620
L107100 77020
L107040 77110
L106980 77170
L106920 77190
" />
<path d="M70970 74620
L71310 74620
" />
<path d="M71070 75220
L71140 74620
" />
<path d="M71440 75220
L71490 74820
" />
<path d="M71510 74620
L71480 74650
L71510 74680
L71540 74650
L71510 74620
L71510 74680
" />
<path d="M71700 74820
L71930 74820
" />
<path d="M71800 74620
L71740 75140
L71760 75190
L71820 75220
L71880 75220
" />
<path d="M72160 75220
L72100 75190
L72080 75140
L72140 74620
" />
<path d="M72610 75190
L72550 75220
L72440 75220
L72380 75190
L72360 75140
L72390 74910
L72420 74850
L72490 74820
L72600 74820
L72650 74850
L72680 74910
L72670 74970
L72370 75020
" />
<path d="M72890 75170
L72920 75190
L72890 75220
L72860 75190
L72890 75170
L72890 75220
" />
<path d="M72930 74850
L72960 74880
L72930 74910
L72900 74880
L72930 74850
L72930 74910
" />
<path d="M71170 72510
L70970 72510
" />
<path d="M70970 72820
L70970 72220
L71260 72220
" />
<path d="M71480 72820
L71480 72420
" />
<path d="M71480 72220
L71450 72250
L71480 72280
L71510 72250
L71480 72220
L71480 72280
" />
<path d="M71860 72820
L71800 72790
L71770 72740
L71770 72220
" />
<path d="M72310 72790
L72250 72820
L72140 72820
L72080 72790
L72050 72740
L72050 72510
L72080 72450
L72140 72420
L72250 72420
L72310 72450
L72340 72510
L72340 72570
L72050 72620
" />
<path d="M72590 72770
L72620 72790
L72590 72820
L72560 72790
L72590 72770
L72590 72820
" />
<path d="M72590 72450
L72620 72480
L72590 72510
L72560 72480
L72590 72450
L72590 72510
" />
<path d="M73340 72820
L73340 72220
L73570 72220
L73630 72250
L73660 72280
L73690 72340
L73690 72420
L73660 72480
L73630 72510
L73570 72540
L73340 72540
" />
<path d="M74030 72820
L73970 72790
L73940 72770
L73910 72710
L73910 72540
L73940 72480
L73970 72450
L74030 72420
L74110 72420
L74170 72450
L74200 72480
L74230 72540
L74230 72710
L74200 72770
L74170 72790
L74110 72820
L74030 72820
" />
<path d="M74480 72420
L74480 72820
" />
<path d="M74480 72480
L74510 72450
L74570 72420
L74650 72420
L74710 72450
L74740 72510
L74740 72820
" />
<path d="M74970 72420
L75110 72820
" />
<path d="M75250 72420
L75110 72820
L75050 72970
L75020 72990
L74970 73020
" />
<path d="M75450 72790
L75510 72820
L75630 72820
L75680 72790
L75710 72740
L75710 72710
L75680 72650
L75630 72620
L75540 72620
L75480 72590
L75450 72540
L75450 72510
L75480 72450
L75540 72420
L75630 72420
L75680 72450
" />
<path d="M76200 72790
L76140 72820
L76030 72820
L75970 72790
L75940 72740
L75940 72510
L75970 72450
L76030 72420
L76140 72420
L76200 72450
L76230 72510
L76230 72570
L75940 72620
" />
<path d="M76480 72820
L76480 72420
" />
<path d="M76480 72540
L76510 72480
L76540 72450
L76600 72420
L76650 72420
" />
<path d="M76850 72770
L76880 72790
L76850 72820
L76820 72790
L76850 72770
L76850 72820
" />
<path d="M77110 72790
L77170 72820
L77290 72820
L77340 72790
L77370 72740
L77370 72710
L77340 72650
L77290 72620
L77200 72620
L77140 72590
L77110 72540
L77110 72510
L77140 72450
L77200 72420
L77290 72420
L77340 72450
" />
<path d="M77890 72790
L77830 72820
L77720 72820
L77660 72790
L77630 72770
L77600 72710
L77600 72540
L77630 72480
L77660 72450
L77720 72420
L77830 72420
L77890 72450
" />
<path d="M78140 72820
L78140 72220
" />
<path d="M78400 72820
L78400 72510
L78370 72450
L78310 72420
L78230 72420
L78170 72450
L78140 72480
" />
<path d="M70940 73990
L71030 74020
L71170 74020
L71230 73990
L71260 73970
L71290 73910
L71290 73850
L71260 73790
L71230 73770
L71170 73740
L71060 73710
L71000 73680
L70970 73650
L70940 73590
L70940 73540
L70970 73480
L71000 73450
L71060 73420
L71200 73420
L71290 73450
" />
<path d="M71540 74020
L71540 73420
" />
<path d="M71800 74020
L71800 73710
L71770 73650
L71710 73620
L71630 73620
L71570 73650
L71540 73680
" />
<path d="M72310 73990
L72250 74020
L72140 74020
L72080 73990
L72050 73940
L72050 73710
L72080 73650
L72140 73620
L72250 73620
L72310 73650
L72340 73710
L72340 73770
L72050 73820
" />
<path d="M72820 73990
L72760 74020
L72650 74020
L72590 73990
L72560 73940
L72560 73710
L72590 73650
L72650 73620
L72760 73620
L72820 73650
L72850 73710
L72850 73770
L72560 73820
" />
<path d="M73020 73620
L73250 73620
" />
<path d="M73100 73420
L73100 73940
L73130 73990
L73190 74020
L73250 74020
" />
<path d="M73440 73970
L73470 73990
L73440 74020
L73410 73990
L73440 73970
L73440 74020
" />
<path d="M73440 73650
L73470 73680
L73440 73710
L73410 73680
L73440 73650
L73440 73710
" />
<path d="M74620 73390
L74110 74170
" />
<path d="M70230 71980
L70230 77980
" />
<path d="M70230 71980
L112230 71980
" />
<path d="M70230 71980
L112230 71980
" />
<path d="M70230 74380
L112230 74380
" />
<path d="M103430 75580
L103430 77980
" />
<path d="M70230 76780
L112230 76780
" />
<path d="M70230 75580
L112230 75580
" />
<path d="M76830 75580
L76830 76780
" />
</g>
<g style="fill:#A00000; fill-opacity:0.0; 
stroke:#A00000; stroke-width:0; stroke-opacity:1; 
stroke-linecap:round; stroke-linejoin:round;">
</g>
<g style="fill:#A00000; fill-opacity:0.0; 
stroke:#A00000; stroke-width:60; stroke-opacity:1; 
stroke-linecap:round; stroke-linejoin:round;">
<circle cx="42700" cy="37000" r="300" /> 
<circle cx="42700" cy="39000" r="300" /> 
<circle cx="42700" cy="41000" r="300" /> 
<circle cx="42700" cy="43000" r="300" /> 
<circle cx="42700" cy="45000" r="300" /> 
<circle cx="41500" cy="38000" r="300" /> 
<circle cx="41500" cy="40000" r="300" /> 
<circle cx="41500" cy="42000" r="300" /> 
<circle cx="41500" cy="44000" r="300" /> 
</g>
<g style="fill:#A00000; fill-opacity:0.0; 
stroke:#A00000; stroke-width:80; stroke-opacity:1; 
stroke-linecap:round; stroke-linejoin:round;">
<polyline fill="none;"
points="43500,36400
43500,45600
" /> 
<polyline fill="none;"
points="43500,36410
43400,36300
" /> 
</g>
<g style="fill:#A00000; fill-opacity:0.0; 
stroke:#A00000; stroke-width:60; stroke-opacity:1; 
stroke-linecap:round; stroke-linejoin:round;">
<polyline fill="none;"
points="43500,37000
43000,37000
" /> 
<polyline fill="none;"
points="43500,38000
41800,38000
" /> 
<polyline fill="none;"
points="43500,39000
43000,39000
" /> 
<polyline fill="none;"
points="43500,40000
41800,40000
" /> 
<polyline fill="none;"
points="43500,41000
43000,41000
" /> 
<polyline fill="none;"
points="43500,42000
41800,42000
" /> 
<polyline fill="none;"
points="43500,43000
43000,43000
" /> 
<polyline fill="none;"
points="43500,44000
41800,44000
" /> 
<polyline fill="none;"
points="43500,45000
43000,45000
" /> 
</g>
<g style="fill:#A00000; fill-opacity:0.0; 
stroke:#A00000; stroke-width:80; stroke-opacity:1; 
stroke-linecap:round; stroke-linejoin:round;">
<polyline fill="none;"
points="43400,36300
43100,36100
" /> 
<polyline fill="none;"
points="43400,45700
43500,45600
" /> 
<polyline fill="none;"
points="43400,45700
43000,45900
" /> 
<polyline fill="none;"
points="43100,36100
42500,36100
" /> 
<polyline fill="none;"
points="43000,45900
42700,45900
" /> 
<polyline fill="none;"
points="40710,44900
42700,45900
" /> 
<polyline fill="none;"
points="40710,44900
40500,44700
" /> 
<polyline fill="none;"
points="40600,36910
42500,36100
" /> 
<polyline fill="none;"
points="40500,37100
40600,36910
" /> 
<polyline fill="none;"
points="40500,44700
40500,37100
" /> 
</g>
<g style="fill:#A00000; fill-opacity:0.0; 
stroke:#A00000; stroke-width:60; stroke-opacity:1; 
stroke-linecap:round; stroke-linejoin:round;">
<path d="M43500 37000
L46500 37000
" />
<path d="M45180 36840
L44830 36840
" />
<path d="M45010 36840
L45010 36240
L44950 36330
L44890 36390
L44830 36410
" />
<path d="M43500 39000
L46500 39000
" />
<path d="M44830 38300
L44860 38270
L44920 38240
L45060 38240
L45120 38270
L45150 38300
L45180 38360
L45180 38410
L45150 38500
L44810 38840
L45180 38840
" />
<path d="M43500 41000
L46500 41000
" />
<path d="M44810 40240
L45180 40240
L44980 40470
L45060 40470
L45120 40500
L45150 40530
L45180 40590
L45180 40730
L45150 40790
L45120 40810
L45060 40840
L44890 40840
L44830 40810
L44810 40790
" />
<path d="M43500 43000
L46500 43000
" />
<path d="M45120 42440
L45120 42840
" />
<path d="M44980 42210
L44830 42640
L45210 42640
" />
<path d="M43500 45000
L46500 45000
" />
<path d="M45150 44240
L44860 44240
L44830 44530
L44860 44500
L44920 44470
L45060 44470
L45120 44500
L45150 44530
L45180 44590
L45180 44730
L45150 44790
L45120 44810
L45060 44840
L44920 44840
L44860 44810
L44830 44790
" />
<path d="M43500 38000
L46500 38000
" />
<path d="M45120 37240
L45010 37240
L44950 37270
L44920 37300
L44860 37390
L44830 37500
L44830 37730
L44860 37790
L44890 37810
L44950 37840
L45060 37840
L45120 37810
L45150 37790
L45180 37730
L45180 37590
L45150 37530
L45120 37500
L45060 37470
L44950 37470
L44890 37500
L44860 37530
L44830 37590
" />
<path d="M43500 40000
L46500 40000
" />
<path d="M44810 39240
L45210 39240
L44950 39840
" />
<path d="M43500 42000
L46500 42000
" />
<path d="M44950 41500
L44890 41470
L44860 41440
L44830 41390
L44830 41360
L44860 41300
L44890 41270
L44950 41240
L45060 41240
L45120 41270
L45150 41300
L45180 41360
L45180 41390
L45150 41440
L45120 41470
L45060 41500
L44950 41500
L44890 41530
L44860 41560
L44830 41610
L44830 41730
L44860 41790
L44890 41810
L44950 41840
L45060 41840
L45120 41810
L45150 41790
L45180 41730
L45180 41610
L45150 41560
L45120 41530
L45060 41500
" />
<path d="M43500 44000
L46500 44000
" />
<path d="M44890 43840
L45010 43840
L45060 43810
L45090 43790
L45150 43700
L45180 43590
L45180 43360
L45150 43300
L45120 43270
L45060 43240
L44950 43240
L44890 43270
L44860 43300
L44830 43360
L44830 43500
L44860 43560
L44890 43590
L44950 43610
L45060 43610
L45120 43590
L45150 43560
L45180 43500
" />
</g>
<g style="fill:#00A0A0; fill-opacity:0.0; 
stroke:#00A0A0; stroke-width:60; stroke-opacity:1; 
stroke-linecap:round; stroke-linejoin:round;">
<path d="M41770 46110
L41770 46610
L41730 46710
L41670 46780
L41570 46810
L41500 46810
" />
<path d="M42460 46810
L42060 46810
" />
<path d="M42260 46810
L42260 46110
L42200 46210
L42130 46280
L42060 46310
" />
<path d="M41130 35810
L41130 35110
L41290 35110
L41390 35150
L41460 35210
L41490 35280
L41530 35410
L41530 35510
L41490 35650
L41460 35710
L41390 35780
L41290 35810
L41130 35810
" />
<path d="M42060 35450
L42160 35480
L42190 35510
L42230 35580
L42230 35680
L42190 35750
L42160 35780
L42090 35810
L41830 35810
L41830 35110
L42060 35110
L42130 35150
L42160 35180
L42190 35250
L42190 35310
L42160 35380
L42130 35410
L42060 35450
L41830 35450
" />
<path d="M42560 35810
L42690 35810
L42760 35780
L42790 35750
L42860 35650
L42890 35510
L42890 35250
L42860 35180
L42830 35150
L42760 35110
L42630 35110
L42560 35150
L42530 35180
L42490 35250
L42490 35410
L42530 35480
L42560 35510
L42630 35550
L42760 35550
L42830 35510
L42860 35480
L42890 35410
" />
</g>
<g style="fill:#A000A0; fill-opacity:0.0; 
stroke:#A000A0; stroke-width:60; stroke-opacity:1; 
stroke-linecap:round; stroke-linejoin:round;">
<path d="M40610 41270
L40610 40670
L40760 40670
L40840 40700
L40900 40760
L40930 40820
L40960 40930
L40960 41020
L40930 41130
L40900 41190
L40840 41240
L40760 41270
L40610 41270
" />
<path d="M41410 40960
L41500 40990
L41530 41020
L41560 41070
L41560 41160
L41530 41220
L41500 41240
L41440 41270
L41210 41270
L41210 40670
L41410 40670
L41470 40700
L41500 40730
L41530 40790
L41530 40840
L41500 40900
L41470 40930
L41410 40960
L41210 40960
" />
<path d="M41840 41270
L41960 41270
L42010 41240
L42040 41220
L42100 41130
L42130 41020
L42130 40790
L42100 40730
L42070 40700
L42010 40670
L41900 40670
L41840 40700
L41810 40730
L41780 40790
L41780 40930
L41810 40990
L41840 41020
L41900 41040
L42010 41040
L42070 41020
L42100 40990
L42130 40930
" />
<path d="M42380 41270
L42380 40670
L42580 41100
L42780 40670
L42780 41270
" />
<path d="M43420 41220
L43390 41240
L43300 41270
L43240 41270
L43160 41240
L43100 41190
L43070 41130
L43040 41020
L43040 40930
L43070 40820
L43100 40760
L43160 40700
L43240 40670
L43300 40670
L43390 40700
L43420 40730
" />
</g>
<g style="fill:#A000A0; fill-opacity:0.0; 
stroke:#A000A0; stroke-width:0; stroke-opacity:1; 
stroke-linecap:round; stroke-linejoin:round;">
</g>
<g style="fill:#A00000; fill-opacity:0.0; 
stroke:#A00000; stroke-width:60; stroke-opacity:1; 
stroke-linecap:round; stroke-linejoin:round;">
<polyline fill="none;"
points="55500,40500
55500,41500
" /> 
</g>
<g style="fill:#A00000; fill-opacity:1.0; 
stroke:#A00000; stroke-width:60; stroke-opacity:1; 
stroke-linecap:round; stroke-linejoin:round;">
<polyline style="fill-rule:evenodd;"
points="54500,40500
55500,41000
54500,41500
" /> 
<path d="M54500 41000
L53000 41000
" />
<path d="M55500 41000
L57000 41000
" />
</g>
<g style="fill:#00A0A0; fill-opacity:0.0; 
stroke:#00A0A0; stroke-width:60; stroke-opacity:1; 
stroke-linecap:round; stroke-linejoin:round;">
<path d="M54710 40130
L54710 39730
L54800 39730
L54860 39750
L54900 39790
L54910 39830
L54930 39900
L54930 39960
L54910 40040
L54900 40070
L54860 40110
L54800 40130
L54710 40130
" />
<path d="M55070 39730
L55310 39730
L55180 39880
L55240 39880
L55280 39900
L55300 39920
L55310 39960
L55310 40060
L55300 40090
L55280 40110
L55240 40130
L55120 40130
L55090 40110
L55070 40090
" />
<path d="M54140 42130
L53920 42130
" />
<path d="M54030 42130
L54030 41730
L53990 41790
L53950 41830
L53920 41850
" />
<path d="M54320 42130
L54320 41730
L54540 42130
L54540 41730
" />
<path d="M54910 41870
L54910 42130
" />
<path d="M54810 41710
L54720 42000
L54960 42000
" />
<path d="M55320 42130
L55100 42130
" />
<path d="M55210 42130
L55210 41730
L55170 41790
L55130 41830
L55100 41850
" />
<path d="M55670 41870
L55670 42130
" />
<path d="M55570 41710
L55480 42000
L55720 42000
" />
<path d="M55930 41900
L55890 41880
L55880 41870
L55860 41830
L55860 41810
L55880 41770
L55890 41750
L55930 41730
L56010 41730
L56050 41750
L56070 41770
L56080 41810
L56080 41830
L56070 41870
L56050 41880
L56010 41900
L55930 41900
L55890 41920
L55880 41940
L55860 41980
L55860 42060
L55880 42090
L55890 42110
L55930 42130
L56010 42130
L56050 42110
L56070 42090
L56080 42060
L56080 41980
L56070 41940
L56050 41920
L56010 41900
" />
</g>
<g style="fill:#A000A0; fill-opacity:0.0; 
stroke:#A000A0; stroke-width:60; stroke-opacity:1; 
stroke-linecap:round; stroke-linejoin:round;">
<path d="M53710 41180
L53800 41210
L53940 41210
L54000 41180
L54030 41160
L54060 41100
L54060 41040
L54030 40980
L54000 40960
L53940 40930
L53830 40900
L53770 40870
L53740 40840
L53710 40780
L53710 40730
L53740 40670
L53770 40640
L53830 40610
L53970 40610
L54060 40640
" />
<path d="M54430 40610
L54540 40610
L54600 40640
L54660 40700
L54680 40810
L54680 41010
L54660 41130
L54600 41180
L54540 41210
L54430 41210
L54370 41180
L54310 41130
L54280 41010
L54280 40810
L54310 40700
L54370 40640
L54430 40610
" />
<path d="M54860 40610
L55200 40610
" />
<path d="M55030 41210
L55030 40610
" />
<path d="M55370 40670
L55400 40640
L55460 40610
L55600 40610
L55660 40640
L55690 40670
L55720 40730
L55720 40780
L55690 40870
L55350 41210
L55720 41210
" />
<path d="M55920 40610
L56290 40610
L56090 40840
L56170 40840
L56230 40870
L56260 40900
L56290 40960
L56290 41100
L56260 41160
L56230 41180
L56170 41210
L56000 41210
L55940 41180
L55920 41160
" />
</g>
<g style="fill:#A000A0; fill-opacity:0.0; 
stroke:#A000A0; stroke-width:0; stroke-opacity:1; 
stroke-linecap:round; stroke-linejoin:round;">
</g>
<g style="fill:#A00000; fill-opacity:0.0; 
stroke:#A00000; stroke-width:100; stroke-opacity:1; 
stroke-linecap:round; stroke-linejoin:round;">
<circle cx="60500" cy="41000" r="1110" /> 
</g>
<g style="fill:#A00000; fill-opacity:0.0; 
stroke:#A00000; stroke-width:60; stroke-opacity:1; 
stroke-linecap:round; stroke-linejoin:round;">
<polyline fill="none;"
points="60000,41000
61000,40000
" /> 
</g>
<g style="fill:#A00000; fill-opacity:0.0; 
stroke:#A00000; stroke-width:100; stroke-opacity:1; 
stroke-linecap:round; stroke-linejoin:round;">
<polyline fill="none;"
points="60000,40250
60000,41750
60000,41750
" /> 
</g>
<g style="fill:#A00000; fill-opacity:0.0; 
stroke:#A00000; stroke-width:60; stroke-opacity:1; 
stroke-linecap:round; stroke-linejoin:round;">
<polyline fill="none;"
points="60500,41500
60000,41000
60000,41000
" /> 
<polyline fill="none;"
points="60900,41900
61000,42000
61000,42000
" /> 
</g>
<g style="fill:#A00000; fill-opacity:1.0; 
stroke:#A00000; stroke-width:60; stroke-opacity:1; 
stroke-linecap:round; stroke-linejoin:round;">
<polyline style="fill-rule:evenodd;"
points="60900,41900
60700,41300
60300,41700
60900,41900
60900,41900
" /> 
<path d="M61000 42000
L61000 43000
" />
</g>
<g style="fill:#00A0A0; fill-opacity:0.0; 
stroke:#00A0A0; stroke-width:60; stroke-opacity:1; 
stroke-linecap:round; stroke-linejoin:round;">
<path d="M60650 42580
L60650 42450
" />
<path d="M60860 42390
L60860 42580
L60460 42580
L60460 42390
" />
</g>
<g style="fill:#A00000; fill-opacity:0.0; 
stroke:#A00000; stroke-width:60; stroke-opacity:1; 
stroke-linecap:round; stroke-linejoin:round;">
<path d="M61460 42390
L61460 42610
" />
<path d="M61460 42500
L61060 42500
L61120 42540
L61160 42580
L61180 42610
" />
<path d="M60000 41000
L58000 41000
" />
</g>
<g style="fill:#00A0A0; fill-opacity:0.0; 
stroke:#00A0A0; stroke-width:60; stroke-opacity:1; 
stroke-linecap:round; stroke-linejoin:round;">
<path d="M59030 40650
L59090 40670
L59100 40690
L59120 40730
L59120 40790
L59100 40820
L59090 40840
L59050 40860
L58900 40860
L58900 40460
L59030 40460
L59070 40480
L59090 40500
L59100 40540
L59100 40580
L59090 40610
L59070 40630
L59030 40650
L58900 40650
" />
</g>
<g style="fill:#A00000; fill-opacity:0.0; 
stroke:#A00000; stroke-width:60; stroke-opacity:1; 
stroke-linecap:round; stroke-linejoin:round;">
<path d="M58890 41100
L58910 41080
L58940 41060
L59040 41060
L59080 41080
L59100 41100
L59110 41140
L59110 41180
L59100 41230
L58870 41460
L59110 41460
" />
<path d="M61000 40000
L61000 39000
" />
</g>
<g style="fill:#00A0A0; fill-opacity:0.0; 
stroke:#00A0A0; stroke-width:60; stroke-opacity:1; 
stroke-linecap:round; stroke-linejoin:round;">
<path d="M60820 39380
L60840 39400
L60860 39450
L60860 39490
L60840 39550
L60800 39590
L60770 39600
L60690 39620
L60630 39620
L60560 39600
L60520 39590
L60480 39550
L60460 39490
L60460 39450
L60480 39400
L60500 39380
" />
</g>
<g style="fill:#A00000; fill-opacity:0.0; 
stroke:#A00000; stroke-width:60; stroke-opacity:1; 
stroke-linecap:round; stroke-linejoin:round;">
<path d="M61060 39630
L61060 39390
L61210 39520
L61210 39460
L61230 39420
L61250 39400
L61290 39390
L61390 39390
L61420 39400
L61440 39420
L61460 39460
L61460 39580
L61440 39610
L61420 39630
" />
</g>
<g style="fill:#00A0A0; fill-opacity:0.0; 
stroke:#00A0A0; stroke-width:60; stroke-opacity:1; 
stroke-linecap:round; stroke-linejoin:round;">
<path d="M59450 42720
L59400 42700
L59360 42650
L59290 42580
L59240 42550
L59190 42550
" />
<path d="M59210 42670
L59170 42650
L59120 42600
L59100 42510
L59100 42340
L59120 42240
L59170 42200
L59210 42170
L59310 42170
L59360 42200
L59400 42240
L59430 42340
L59430 42510
L59400 42600
L59360 42650
L59310 42670
L59210 42670
" />
<path d="M59900 42670
L59620 42670
" />
<path d="M59760 42670
L59760 42170
L59710 42240
L59660 42290
L59620 42320
" />
<path d="M57180 39220
L57200 39200
L57250 39170
L57370 39170
L57410 39200
L57440 39220
L57460 39270
L57460 39320
L57440 39390
L57150 39670
L57460 39670
" />
<path d="M57680 39670
L57680 39170
L57960 39670
L57960 39170
" />
<path d="M58150 39170
L58460 39170
L58290 39360
L58370 39360
L58410 39390
L58440 39410
L58460 39460
L58460 39580
L58440 39620
L58410 39650
L58370 39670
L58220 39670
L58180 39650
L58150 39620
" />
<path d="M58700 39670
L58800 39670
L58850 39650
L58870 39620
L58920 39550
L58940 39460
L58940 39270
L58920 39220
L58890 39200
L58850 39170
L58750 39170
L58700 39200
L58680 39220
L58660 39270
L58660 39390
L58680 39430
L58700 39460
L58750 39480
L58850 39480
L58890 39460
L58920 39430
L58940 39390
" />
<path d="M59250 39170
L59300 39170
L59350 39200
L59370 39220
L59400 39270
L59420 39360
L59420 39480
L59400 39580
L59370 39620
L59350 39650
L59300 39670
L59250 39670
L59210 39650
L59180 39620
L59160 39580
L59140 39480
L59140 39360
L59160 39270
L59180 39220
L59210 39200
L59250 39170
" />
<path d="M59850 39340
L59850 39670
" />
<path d="M59730 39150
L59620 39510
L59920 39510
" />
</g>
<g style="fill:#A000A0; fill-opacity:0.0; 
stroke:#A000A0; stroke-width:60; stroke-opacity:1; 
stroke-linecap:round; stroke-linejoin:round;">
<path d="M57840 41180
L57930 41210
L58070 41210
L58130 41180
L58160 41160
L58190 41100
L58190 41040
L58160 40980
L58130 40960
L58070 40930
L57960 40900
L57900 40870
L57870 40840
L57840 40780
L57840 40730
L57870 40670
L57900 40640
L57960 40610
L58100 40610
L58190 40640
" />
<path d="M58560 40610
L58670 40610
L58730 40640
L58790 40700
L58810 40810
L58810 41010
L58790 41130
L58730 41180
L58670 41210
L58560 41210
L58500 41180
L58440 41130
L58410 41010
L58410 40810
L58440 40700
L58500 40640
L58560 40610
" />
<path d="M58990 40610
L59330 40610
" />
<path d="M59160 41210
L59160 40610
" />
<path d="M59500 40670
L59530 40640
L59590 40610
L59730 40610
L59790 40640
L59820 40670
L59850 40730
L59850 40780
L59820 40870
L59480 41210
L59850 41210
" />
<path d="M60050 40610
L60420 40610
L60220 40840
L60300 40840
L60360 40870
L60390 40900
L60420 40960
L60420 41100
L60390 41160
L60360 41180
L60300 41210
L60130 41210
L60070 41180
L60050 41160
" />
<path d="M60670 40900
L60870 40900
" />
<path d="M60960 41210
L60670 41210
L60670 40610
L60960 40610
" />
<path d="M61410 40900
L61500 40930
L61530 40960
L61560 41010
L61560 41100
L61530 41160
L61500 41180
L61440 41210
L61210 41210
L61210 40610
L61410 40610
L61470 40640
L61500 40670
L61530 40730
L61530 40780
L61500 40840
L61470 40870
L61410 40900
L61210 40900
" />
<path d="M62160 41160
L62130 41180
L62040 41210
L61980 41210
L61900 41180
L61840 41130
L61810 41070
L61780 40960
L61780 40870
L61810 40760
L61840 40700
L61900 40640
L61980 40610
L62040 40610
L62130 40640
L62160 40670
" />
</g>
<g style="fill:#A000A0; fill-opacity:0.0; 
stroke:#A000A0; stroke-width:0; stroke-opacity:1; 
stroke-linecap:round; stroke-linejoin:round;">
</g>
<g style="fill:#A00000; fill-opacity:1.0; 
stroke:#A00000; stroke-width:60; stroke-opacity:1; 
stroke-linecap:round; stroke-linejoin:round;">
<polyline style="fill-rule:evenodd;"
points="52500,44500
52000,45500
53000,45500
52500,44500
52500,44500
" /> 
</g>
<g style="fill:#A00000; fill-opacity:0.0; 
stroke:#A00000; stroke-width:80; stroke-opacity:1; 
stroke-linecap:round; stroke-linejoin:round;">
<polyline fill="none;"
points="52000,44300
52200,44500
52800,44500
53000,44700
53000,44700
" /> 
</g>
<g style="fill:#A00000; fill-opacity:0.0; 
stroke:#A00000; stroke-width:60; stroke-opacity:1; 
stroke-linecap:round; stroke-linejoin:round;">
<path d="M52500 45500
L52500 47000
" />
<path d="M52500 44500
L52500 43000
" />
</g>
<g style="fill:#00A0A0; fill-opacity:0.0; 
stroke:#00A0A0; stroke-width:60; stroke-opacity:1; 
stroke-linecap:round; stroke-linejoin:round;">
<path d="M51670 45370
L51170 45370
L51170 45250
L51200 45180
L51240 45130
L51290 45110
L51390 45090
L51460 45090
L51550 45110
L51600 45130
L51650 45180
L51670 45250
L51670 45370
" />
<path d="M51670 44610
L51670 44890
" />
<path d="M51670 44750
L51170 44750
L51240 44800
L51290 44850
L51320 44890
" />
<path d="M53230 45260
L53230 45450
L53420 45470
L53400 45450
L53380 45420
L53380 45320
L53400 45280
L53420 45260
L53460 45250
L53560 45250
L53590 45260
L53610 45280
L53630 45320
L53630 45420
L53610 45450
L53590 45470
" />
<path d="M53230 45130
L53630 45000
L53230 44870
" />
<path d="M53630 44530
L53630 44750
" />
<path d="M53630 44640
L53230 44640
L53290 44680
L53330 44720
L53350 44750
" />
</g>
<g style="fill:#A000A0; fill-opacity:0.0; 
stroke:#A000A0; stroke-width:60; stroke-opacity:1; 
stroke-linecap:round; stroke-linejoin:round;">
<path d="M52680 46290
L52710 46200
L52710 46060
L52680 46000
L52660 45970
L52600 45940
L52540 45940
L52480 45970
L52460 46000
L52430 46060
L52400 46170
L52370 46230
L52340 46260
L52280 46290
L52230 46290
L52170 46260
L52140 46230
L52110 46170
L52110 46030
L52140 45940
" />
<path d="M52110 45570
L52110 45460
L52140 45400
L52200 45340
L52310 45320
L52510 45320
L52630 45340
L52680 45400
L52710 45460
L52710 45570
L52680 45630
L52630 45690
L52510 45720
L52310 45720
L52200 45690
L52140 45630
L52110 45570
" />
<path d="M52110 45140
L52110 44800
" />
<path d="M52710 44970
L52110 44970
" />
<path d="M52170 44630
L52140 44600
L52110 44540
L52110 44400
L52140 44340
L52170 44310
L52230 44280
L52280 44280
L52370 44310
L52710 44650
L52710 44280
" />
<path d="M52110 44080
L52110 43710
L52340 43910
L52340 43830
L52370 43770
L52400 43740
L52460 43710
L52600 43710
L52660 43740
L52680 43770
L52710 43830
L52710 44000
L52680 44060
L52660 44080
" />
</g>
<g style="fill:#A000A0; fill-opacity:0.0; 
stroke:#A000A0; stroke-width:0; stroke-opacity:1; 
stroke-linecap:round; stroke-linejoin:round;">
</g>
<g style="fill:#A00000; fill-opacity:0.0; 
stroke:#A00000; stroke-width:60; stroke-opacity:1; 
stroke-linecap:round; stroke-linejoin:round;">
<polyline fill="none;"
points="52000,47500
52500,48000
53000,47500
52000,47500
" /> 
</g>
<g style="fill:#A00000; fill-opacity:0.0; 
stroke:#A00000; stroke-width:0; stroke-opacity:1; 
stroke-linecap:round; stroke-linejoin:round;">
</g>
<g style="fill:#A00000; fill-opacity:0.0; 
stroke:#A00000; stroke-width:60; stroke-opacity:1; 
stroke-linecap:round; stroke-linejoin:round;">
<polyline fill="none;"
points="47000,45500
47500,46000
48000,45500
47000,45500
" /> 
</g>
<g style="fill:#A00000; fill-opacity:0.0; 
stroke:#A00000; stroke-width:0; stroke-opacity:1; 
stroke-linecap:round; stroke-linejoin:round;">
</g>
<g style="fill:#A00000; fill-opacity:0.0; 
stroke:#A00000; stroke-width:120; stroke-opacity:1; 
stroke-linecap:round; stroke-linejoin:round;">
<rect x="62000" y="36600" width="3000" height="800" rx="0" />
</g>
<g style="fill:#A00000; fill-opacity:0.0; 
stroke:#A00000; stroke-width:60; stroke-opacity:1; 
stroke-linecap:round; stroke-linejoin:round;">
<path d="M62000 37000
L61000 37000
" />
</g>
<g style="fill:#00A0A0; fill-opacity:0.0; 
stroke:#00A0A0; stroke-width:60; stroke-opacity:1; 
stroke-linecap:round; stroke-linejoin:round;">
</g>
<g style="fill:#A00000; fill-opacity:0.0; 
stroke:#A00000; stroke-width:60; stroke-opacity:1; 
stroke-linecap:round; stroke-linejoin:round;">
<path d="M65000 37000
L66000 37000
" />
</g>
<g style="fill:#00A0A0; fill-opacity:0.0; 
stroke:#00A0A0; stroke-width:60; stroke-opacity:1; 
stroke-linecap:round; stroke-linejoin:round;">
<path d="M63430 36390
L63300 36200
" />
<path d="M63210 36390
L63210 35990
L63360 35990
L63400 36010
L63410 36030
L63430 36070
L63430 36130
L63410 36160
L63400 36180
L63360 36200
L63210 36200
" />
<path d="M63780 36130
L63780 36390
" />
<path d="M63680 35970
L63590 36260
L63830 36260
" />
<path d="M63250 37120
L63030 37120
" />
<path d="M63140 37120
L63140 36720
L63100 36780
L63060 36820
L63030 36840
" />
<path d="M63500 36720
L63540 36720
L63580 36740
L63600 36760
L63620 36800
L63630 36870
L63630 36970
L63620 37050
L63600 37080
L63580 37100
L63540 37120
L63500 37120
L63460 37100
L63440 37080
L63430 37050
L63410 36970
L63410 36870
L63430 36800
L63440 36760
L63460 36740
L63500 36720
" />
<path d="M63810 37120
L63810 36720
" />
<path d="M63840 36970
L63960 37120
" />
<path d="M63960 36860
L63810 37010
" />
</g>
<g style="fill:#A000A0; fill-opacity:0.0; 
stroke:#A000A0; stroke-width:50; stroke-opacity:1; 
stroke-linecap:round; stroke-linejoin:round;">
<path d="M62660 37830
L62700 37840
L62770 37840
L62800 37830
L62810 37810
L62830 37780
L62830 37760
L62810 37730
L62800 37710
L62770 37700
L62710 37680
L62690 37670
L62670 37660
L62660 37630
L62660 37600
L62670 37570
L62690 37560
L62710 37540
L62790 37540
L62830 37560
" />
<path d="M62960 37840
L62960 37540
L63060 37760
L63160 37540
L63160 37840
" />
<path d="M63360 37540
L63390 37540
L63420 37560
L63430 37570
L63440 37600
L63460 37660
L63460 37730
L63440 37780
L63430 37810
L63420 37830
L63390 37840
L63360 37840
L63330 37830
L63320 37810
L63300 37780
L63290 37730
L63290 37660
L63300 37600
L63320 37570
L63330 37560
L63360 37540
" />
<path d="M63720 37540
L63660 37540
L63630 37560
L63620 37570
L63590 37610
L63580 37670
L63580 37780
L63590 37810
L63610 37830
L63630 37840
L63690 37840
L63720 37830
L63730 37810
L63750 37780
L63750 37710
L63730 37680
L63720 37670
L63690 37660
L63630 37660
L63610 37670
L63590 37680
L63580 37710
" />
<path d="M63940 37540
L63970 37540
L64000 37560
L64010 37570
L64020 37600
L64040 37660
L64040 37730
L64020 37780
L64010 37810
L64000 37830
L63970 37840
L63940 37840
L63910 37830
L63900 37810
L63880 37780
L63870 37730
L63870 37660
L63880 37600
L63900 37570
L63910 37560
L63940 37540
" />
<path d="M64140 37540
L64330 37540
L64230 37660
L64270 37660
L64300 37670
L64310 37680
L64330 37710
L64330 37780
L64310 37810
L64300 37830
L64270 37840
L64190 37840
L64160 37830
L64140 37810
" />
</g>
<g style="fill:#A000A0; fill-opacity:0.0; 
stroke:#A000A0; stroke-width:0; stroke-opacity:1; 
stroke-linecap:round; stroke-linejoin:round;">
</g>
<g style="fill:#A00000; fill-opacity:0.0; 
stroke:#A00000; stroke-width:60; stroke-opacity:1; 
stroke-linecap:round; stroke-linejoin:round;">
<circle cx="66000" cy="36000" r="200" /> 
<polyline fill="none;"
points="66000,36500
66000,36200
66000,36200
" /> 
</g>
<g style="fill:#00A0A0; fill-opacity:0.0; 
stroke:#00A0A0; stroke-width:50; stroke-opacity:1; 
stroke-linecap:round; stroke-linejoin:round;">
<path d="M65600 35300
L65700 35600
L65800 35300
" />
<path d="M66070 35570
L66060 35590
L66020 35600
L65990 35600
L65940 35590
L65920 35560
L65900 35530
L65890 35470
L65890 35430
L65900 35370
L65920 35340
L65940 35320
L65990 35300
L66020 35300
L66060 35320
L66070 35330
" />
<path d="M66370 35570
L66360 35590
L66320 35600
L66290 35600
L66240 35590
L66220 35560
L66200 35530
L66190 35470
L66190 35430
L66200 35370
L66220 35340
L66240 35320
L66290 35300
L66320 35300
L66360 35320
L66370 35330
" />
</g>
<g style="fill:#00A0A0; fill-opacity:0.0; 
stroke:#00A0A0; stroke-width:0; stroke-opacity:1; 
stroke-linecap:round; stroke-linejoin:round;">
</g>
<g style="fill:#A00000; fill-opacity:0.0; 
stroke:#A00000; stroke-width:120; stroke-opacity:1; 
stroke-linecap:round; stroke-linejoin:round;">
<rect x="57100" y="36500" width="800" height="3000" rx="0" />
</g>
<g style="fill:#A00000; fill-opacity:0.0; 
stroke:#A00000; stroke-width:60; stroke-opacity:1; 
stroke-linecap:round; stroke-linejoin:round;">
<path d="M57500 36500
L57500 35500
" />
</g>
<g style="fill:#00A0A0; fill-opacity:0.0; 
stroke:#00A0A0; stroke-width:60; stroke-opacity:1; 
stroke-linecap:round; stroke-linejoin:round;">
</g>
<g style="fill:#A00000; fill-opacity:0.0; 
stroke:#A00000; stroke-width:60; stroke-opacity:1; 
stroke-linecap:round; stroke-linejoin:round;">
<path d="M57500 39500
L57500 40500
" />
</g>
<g style="fill:#00A0A0; fill-opacity:0.0; 
stroke:#00A0A0; stroke-width:60; stroke-opacity:1; 
stroke-linecap:round; stroke-linejoin:round;">
<path d="M58430 38070
L58240 38200
" />
<path d="M58430 38290
L58030 38290
L58030 38140
L58050 38100
L58070 38090
L58110 38070
L58170 38070
L58200 38090
L58220 38100
L58240 38140
L58240 38290
" />
<path d="M58030 37700
L58030 37890
L58220 37910
L58200 37890
L58180 37860
L58180 37760
L58200 37720
L58220 37700
L58260 37690
L58360 37690
L58390 37700
L58410 37720
L58430 37760
L58430 37860
L58410 37890
L58390 37910
" />
<path d="M57340 38450
L57320 38430
L57300 38400
L57300 38300
L57320 38260
L57340 38240
L57380 38230
L57420 38230
L57470 38240
L57700 38470
L57700 38230
" />
<path d="M57340 38070
L57320 38050
L57300 38020
L57300 37920
L57320 37880
L57340 37860
L57380 37850
L57420 37850
L57470 37860
L57700 38090
L57700 37850
" />
<path d="M57700 37670
L57300 37670
" />
<path d="M57550 37640
L57700 37520
" />
<path d="M57440 37520
L57590 37670
" />
</g>
<g style="fill:#A000A0; fill-opacity:0.0; 
stroke:#A000A0; stroke-width:50; stroke-opacity:1; 
stroke-linecap:round; stroke-linejoin:round;">
<path d="M56890 38820
L56900 38780
L56900 38710
L56890 38680
L56870 38670
L56840 38650
L56820 38650
L56790 38670
L56770 38680
L56760 38710
L56740 38770
L56730 38790
L56720 38810
L56690 38820
L56660 38820
L56630 38810
L56620 38790
L56600 38770
L56600 38690
L56620 38650
" />
<path d="M56900 38520
L56600 38520
L56820 38420
L56600 38320
L56900 38320
" />
<path d="M56600 38120
L56600 38090
L56620 38060
L56630 38050
L56660 38040
L56720 38020
L56790 38020
L56840 38040
L56870 38050
L56890 38060
L56900 38090
L56900 38120
L56890 38150
L56870 38160
L56840 38180
L56790 38190
L56720 38190
L56660 38180
L56630 38160
L56620 38150
L56600 38120
" />
<path d="M56600 37760
L56600 37820
L56620 37850
L56630 37860
L56670 37890
L56730 37900
L56840 37900
L56870 37890
L56890 37870
L56900 37850
L56900 37790
L56890 37760
L56870 37750
L56840 37730
L56770 37730
L56740 37750
L56730 37760
L56720 37790
L56720 37850
L56730 37870
L56740 37890
L56770 37900
" />
<path d="M56600 37540
L56600 37510
L56620 37480
L56630 37470
L56660 37460
L56720 37440
L56790 37440
L56840 37460
L56870 37470
L56890 37480
L56900 37510
L56900 37540
L56890 37570
L56870 37580
L56840 37600
L56790 37610
L56720 37610
L56660 37600
L56630 37580
L56620 37570
L56600 37540
" />
<path d="M56600 37340
L56600 37150
L56720 37250
L56720 37210
L56730 37180
L56740 37170
L56770 37150
L56840 37150
L56870 37170
L56890 37180
L56900 37210
L56900 37290
L56890 37320
L56870 37340
" />
</g>
<g style="fill:#A000A0; fill-opacity:0.0; 
stroke:#A000A0; stroke-width:0; stroke-opacity:1; 
stroke-linecap:round; stroke-linejoin:round;">
</g>
<g style="fill:#A00000; fill-opacity:0.0; 
stroke:#A00000; stroke-width:120; stroke-opacity:1; 
stroke-linecap:round; stroke-linejoin:round;">
<rect x="48500" y="38600" width="3000" height="800" rx="0" />
</g>
<g style="fill:#A00000; fill-opacity:0.0; 
stroke:#A00000; stroke-width:60; stroke-opacity:1; 
stroke-linecap:round; stroke-linejoin:round;">
<path d="M48500 39000
L47500 39000
" />
</g>
<g style="fill:#00A0A0; fill-opacity:0.0; 
stroke:#00A0A0; stroke-width:60; stroke-opacity:1; 
stroke-linecap:round; stroke-linejoin:round;">
</g>
<g style="fill:#A00000; fill-opacity:0.0; 
stroke:#A00000; stroke-width:60; stroke-opacity:1; 
stroke-linecap:round; stroke-linejoin:round;">
<path d="M51500 39000
L52500 39000
" />
</g>
<g style="fill:#00A0A0; fill-opacity:0.0; 
stroke:#00A0A0; stroke-width:60; stroke-opacity:1; 
stroke-linecap:round; stroke-linejoin:round;">
<path d="M49930 38390
L49800 38200
" />
<path d="M49710 38390
L49710 37990
L49860 37990
L49900 38010
L49910 38030
L49930 38070
L49930 38130
L49910 38160
L49900 38180
L49860 38200
L49710 38200
" />
<path d="M50070 37990
L50310 37990
L50180 38140
L50240 38140
L50280 38160
L50300 38180
L50310 38220
L50310 38320
L50300 38350
L50280 38370
L50240 38390
L50120 38390
L50090 38370
L50070 38350
" />
<path d="M49720 38860
L49720 39120
" />
<path d="M49620 38700
L49530 38990
L49770 38990
" />
<path d="M49930 39120
L49930 38720
" />
<path d="M49960 38970
L50080 39120
" />
<path d="M50080 38860
L49930 39010
" />
<path d="M50210 38720
L50470 38720
L50300 39120
" />
</g>
<g style="fill:#A000A0; fill-opacity:0.0; 
stroke:#A000A0; stroke-width:50; stroke-opacity:1; 
stroke-linecap:round; stroke-linejoin:round;">
<path d="M49160 39830
L49200 39840
L49270 39840
L49300 39830
L49310 39810
L49330 39780
L49330 39760
L49310 39730
L49300 39710
L49270 39700
L49210 39680
L49190 39670
L49170 39660
L49160 39630
L49160 39600
L49170 39570
L49190 39560
L49210 39540
L49290 39540
L49330 39560
" />
<path d="M49460 39840
L49460 39540
L49560 39760
L49660 39540
L49660 39840
" />
<path d="M49860 39540
L49890 39540
L49920 39560
L49930 39570
L49940 39600
L49960 39660
L49960 39730
L49940 39780
L49930 39810
L49920 39830
L49890 39840
L49860 39840
L49830 39830
L49820 39810
L49800 39780
L49790 39730
L49790 39660
L49800 39600
L49820 39570
L49830 39560
L49860 39540
" />
<path d="M50220 39540
L50160 39540
L50130 39560
L50120 39570
L50090 39610
L50080 39670
L50080 39780
L50090 39810
L50110 39830
L50130 39840
L50190 39840
L50220 39830
L50230 39810
L50250 39780
L50250 39710
L50230 39680
L50220 39670
L50190 39660
L50130 39660
L50110 39670
L50090 39680
L50080 39710
" />
<path d="M50440 39540
L50470 39540
L50500 39560
L50510 39570
L50520 39600
L50540 39660
L50540 39730
L50520 39780
L50510 39810
L50500 39830
L50470 39840
L50440 39840
L50410 39830
L50400 39810
L50380 39780
L50370 39730
L50370 39660
L50380 39600
L50400 39570
L50410 39560
L50440 39540
" />
<path d="M50640 39540
L50830 39540
L50730 39660
L50770 39660
L50800 39670
L50810 39680
L50830 39710
L50830 39780
L50810 39810
L50800 39830
L50770 39840
L50690 39840
L50660 39830
L50640 39810
" />
</g>
<g style="fill:#A000A0; fill-opacity:0.0; 
stroke:#A000A0; stroke-width:0; stroke-opacity:1; 
stroke-linecap:round; stroke-linejoin:round;">
</g>
<g style="fill:#A00000; fill-opacity:1.0; 
stroke:#A00000; stroke-width:60; stroke-opacity:1; 
stroke-linecap:round; stroke-linejoin:round;">
<polyline style="fill-rule:evenodd;"
points="52500,37500
53000,36500
52000,36500
52500,37500
52500,37500
" /> 
</g>
<g style="fill:#A00000; fill-opacity:0.0; 
stroke:#A00000; stroke-width:80; stroke-opacity:1; 
stroke-linecap:round; stroke-linejoin:round;">
<polyline fill="none;"
points="53000,37700
52800,37500
52200,37500
52000,37300
52000,37300
" /> 
</g>
<g style="fill:#A00000; fill-opacity:0.0; 
stroke:#A00000; stroke-width:60; stroke-opacity:1; 
stroke-linecap:round; stroke-linejoin:round;">
<path d="M52500 36500
L52500 35000
" />
<path d="M52500 37500
L52500 39000
" />
</g>
<g style="fill:#00A0A0; fill-opacity:0.0; 
stroke:#00A0A0; stroke-width:60; stroke-opacity:1; 
stroke-linecap:round; stroke-linejoin:round;">
<path d="M53730 37370
L53230 37370
L53230 37250
L53260 37180
L53300 37130
L53350 37110
L53450 37090
L53520 37090
L53610 37110
L53660 37130
L53710 37180
L53730 37250
L53730 37370
" />
<path d="M53280 36890
L53260 36870
L53230 36820
L53230 36700
L53260 36660
L53280 36630
L53330 36610
L53380 36610
L53450 36630
L53730 36920
L53730 36610
" />
<path d="M51290 37260
L51290 37450
L51480 37470
L51460 37450
L51440 37420
L51440 37320
L51460 37280
L51480 37260
L51520 37250
L51620 37250
L51650 37260
L51670 37280
L51690 37320
L51690 37420
L51670 37450
L51650 37470
" />
<path d="M51290 37130
L51690 37000
L51290 36870
" />
<path d="M51690 36530
L51690 36750
" />
<path d="M51690 36640
L51290 36640
L51350 36680
L51390 36720
L51410 36750
" />
</g>
<g style="fill:#A000A0; fill-opacity:0.0; 
stroke:#A000A0; stroke-width:60; stroke-opacity:1; 
stroke-linecap:round; stroke-linejoin:round;">
<path d="M52740 38290
L52770 38200
L52770 38060
L52740 38000
L52720 37970
L52660 37940
L52600 37940
L52540 37970
L52520 38000
L52490 38060
L52460 38170
L52430 38230
L52400 38260
L52340 38290
L52290 38290
L52230 38260
L52200 38230
L52170 38170
L52170 38030
L52200 37940
" />
<path d="M52170 37570
L52170 37460
L52200 37400
L52260 37340
L52370 37320
L52570 37320
L52690 37340
L52740 37400
L52770 37460
L52770 37570
L52740 37630
L52690 37690
L52570 37720
L52370 37720
L52260 37690
L52200 37630
L52170 37570
" />
<path d="M52170 37140
L52170 36800
" />
<path d="M52770 36970
L52170 36970
" />
<path d="M52230 36630
L52200 36600
L52170 36540
L52170 36400
L52200 36340
L52230 36310
L52290 36280
L52340 36280
L52430 36310
L52770 36650
L52770 36280
" />
<path d="M52170 36080
L52170 35710
L52400 35910
L52400 35830
L52430 35770
L52460 35740
L52520 35710
L52660 35710
L52720 35740
L52740 35770
L52770 35830
L52770 36000
L52740 36060
L52720 36080
" />
</g>
<g style="fill:#A000A0; fill-opacity:0.0; 
stroke:#A000A0; stroke-width:0; stroke-opacity:1; 
stroke-linecap:round; stroke-linejoin:round;">
</g>
<g style="fill:#A00000; fill-opacity:0.0; 
stroke:#A00000; stroke-width:60; stroke-opacity:1; 
stroke-linecap:round; stroke-linejoin:round;">
<polyline fill="none;"
points="60500,43500
61000,44000
61500,43500
60500,43500
" /> 
</g>
<g style="fill:#A00000; fill-opacity:0.0; 
stroke:#A00000; stroke-width:50; stroke-opacity:1; 
stroke-linecap:round; stroke-linejoin:round;">
<path d="M66220 43610
L66220 43330
L66310 43530
L66400 43330
L66400 43610
" />
<path d="M66590 43330
L66640 43330
L66670 43350
L66700 43370
L66710 43430
L66710 43520
L66700 43570
L66670 43600
L66640 43610
L66590 43610
L66560 43600
L66540 43570
L66520 43520
L66520 43430
L66540 43370
L66560 43350
L66590 43330
" />
<path d="M66810 43600
L66850 43610
L66920 43610
L66950 43600
L66960 43590
L66970 43560
L66970 43530
L66960 43510
L66950 43490
L66920 43480
L66870 43470
L66840 43450
L66830 43440
L66810 43410
L66810 43390
L66830 43360
L66840 43350
L66870 43330
L66930 43330
L66970 43350
" />
<path d="M67100 43610
L67100 43330
" />
</g>
<g style="fill:#A00000; fill-opacity:0.0; 
stroke:#A00000; stroke-width:100; stroke-opacity:1; 
stroke-linecap:round; stroke-linejoin:round;">
<polyline fill="none;"
points="66000,43500
66000,43830
67290,43830
67430,43500
67290,43170
66000,43170
66000,43500
" /> 
</g>
<g style="fill:#A00000; fill-opacity:0.0; 
stroke:#A00000; stroke-width:50; stroke-opacity:1; 
stroke-linecap:round; stroke-linejoin:round;">
<path d="M66200 39600
L66240 39610
L66310 39610
L66340 39600
L66350 39590
L66360 39560
L66360 39530
L66350 39510
L66340 39490
L66310 39480
L66260 39470
L66230 39450
L66220 39440
L66200 39410
L66200 39390
L66220 39360
L66230 39350
L66260 39330
L66320 39330
L66360 39350
" />
<path d="M66650 39590
L66630 39600
L66590 39610
L66570 39610
L66530 39600
L66500 39570
L66490 39550
L66470 39490
L66470 39450
L66490 39400
L66500 39370
L66530 39350
L66570 39330
L66590 39330
L66630 39350
L66650 39360
" />
<path d="M66770 39610
L66770 39330
" />
<path d="M66930 39610
L66810 39450
" />
<path d="M66930 39330
L66770 39490
" />
</g>
<g style="fill:#A00000; fill-opacity:0.0; 
stroke:#A00000; stroke-width:100; stroke-opacity:1; 
stroke-linecap:round; stroke-linejoin:round;">
<polyline fill="none;"
points="66000,39500
66000,39830
67110,39830
67250,39500
67110,39170
66000,39170
66000,39500
" /> 
</g>
<g style="fill:#A00000; fill-opacity:0.0; 
stroke:#A00000; stroke-width:60; stroke-opacity:1; 
stroke-linecap:round; stroke-linejoin:round;">
<path d="M46260 36760
L46740 37240
" />
<path d="M46740 36760
L46260 37240
" />
</g>
<g style="fill:#0000C0; fill-opacity:0.0; 
stroke:#0000C0; stroke-width:60; stroke-opacity:1; 
stroke-linecap:round; stroke-linejoin:round;">
<path d="M46260 38760
L46740 39240
" />
<path d="M46740 38760
L46260 39240
" />
<path d="M46260 43760
L46740 44240
" />
<path d="M46740 43760
L46260 44240
" />
</g>
<g style="fill:#0000C0; fill-opacity:0.0; 
stroke:#0000C0; stroke-width:0; stroke-opacity:1; 
stroke-linecap:round; stroke-linejoin:round;">
</g>
<g style="fill:#A00000; fill-opacity:0.0; 
stroke:#A00000; stroke-width:60; stroke-opacity:1; 
stroke-linecap:round; stroke-linejoin:round;">
<polyline fill="none;"
points="53000,35500
53500,36000
54000,35500
53000,35500
" /> 
</g>
<g style="fill:#A00000; fill-opacity:0.0; 
stroke:#A00000; stroke-width:0; stroke-opacity:1; 
stroke-linecap:round; stroke-linejoin:round;">
</g>
<g style="fill:#A00000; fill-opacity:0.0; 
stroke:#A00000; stroke-width:60; stroke-opacity:1; 
stroke-linecap:round; stroke-linejoin:round;">
<polyline fill="none;"
points="58000,35500
58500,36000
59000,35500
58000,35500
" /> 
</g>
<g style="fill:#A00000; fill-opacity:0.0; 
stroke:#A00000; stroke-width:50; stroke-opacity:1; 
stroke-linecap:round; stroke-linejoin:round;">
<path d="M66380 38110
L66280 37980
" />
<path d="M66220 38110
L66220 37830
L66320 37830
L66350 37850
L66360 37860
L66380 37890
L66380 37930
L66360 37950
L66350 37970
L66320 37980
L66220 37980
" />
<path d="M66500 37970
L66590 37970
" />
<path d="M66630 38110
L66500 38110
L66500 37830
L66630 37830
" />
<path d="M66730 38100
L66770 38110
L66840 38110
L66870 38100
L66880 38090
L66890 38060
L66890 38030
L66880 38010
L66870 37990
L66840 37980
L66790 37970
L66760 37950
L66750 37940
L66730 37910
L66730 37890
L66750 37860
L66760 37850
L66790 37830
L66850 37830
L66890 37850
" />
<path d="M67020 37970
L67110 37970
" />
<path d="M67150 38110
L67020 38110
L67020 37830
L67150 37830
" />
<path d="M67230 37830
L67390 37830
" />
<path d="M67310 38110
L67310 37830
" />
</g>
<g style="fill:#A00000; fill-opacity:0.0; 
stroke:#A00000; stroke-width:100; stroke-opacity:1; 
stroke-linecap:round; stroke-linejoin:round;">
<polyline fill="none;"
points="66000,38000
66000,38330
67540,38330
67680,38000
67540,37670
66000,37670
66000,38000
" /> 
</g>
<g style="fill:#A00000; fill-opacity:0.0; 
stroke:#A00000; stroke-width:50; stroke-opacity:1; 
stroke-linecap:round; stroke-linejoin:round;">
<path d="M66220 41610
L66220 41330
L66310 41530
L66400 41330
L66400 41610
" />
<path d="M66540 41610
L66540 41330
" />
<path d="M66650 41600
L66690 41610
L66760 41610
L66790 41600
L66800 41590
L66810 41560
L66810 41530
L66800 41510
L66790 41490
L66760 41480
L66710 41470
L66680 41450
L66670 41440
L66650 41410
L66650 41390
L66670 41360
L66680 41350
L66710 41330
L66770 41330
L66810 41350
" />
<path d="M66990 41330
L67040 41330
L67070 41350
L67100 41370
L67110 41430
L67110 41520
L67100 41570
L67070 41600
L67040 41610
L66990 41610
L66960 41600
L66940 41570
L66920 41520
L66920 41430
L66940 41370
L66960 41350
L66990 41330
" />
</g>
<g style="fill:#A00000; fill-opacity:0.0; 
stroke:#A00000; stroke-width:100; stroke-opacity:1; 
stroke-linecap:round; stroke-linejoin:round;">
<polyline fill="none;"
points="66000,41500
66000,41830
67290,41830
67430,41500
67290,41170
66000,41170
66000,41500
" /> 
</g>
<g style="fill:#A00000; fill-opacity:0.0; 
stroke:#A00000; stroke-width:0; stroke-opacity:1; 
stroke-linecap:round; stroke-linejoin:round;">
</g>
<g style="fill:#A00000; fill-opacity:0.0; 
stroke:#A00000; stroke-width:60; stroke-opacity:1; 
stroke-linecap:round; stroke-linejoin:round;">
<circle cx="68500" cy="43000" r="200" /> 
<polyline fill="none;"
points="68500,43500
68500,43200
68500,43200
" /> 
</g>
<g style="fill:#00A0A0; fill-opacity:0.0; 
stroke:#00A0A0; stroke-width:50; stroke-opacity:1; 
stroke-linecap:round; stroke-linejoin:round;">
<path d="M68100 42300
L68200 42600
L68300 42300
" />
<path d="M68570 42570
L68560 42590
L68520 42600
L68490 42600
L68440 42590
L68420 42560
L68400 42530
L68390 42470
L68390 42430
L68400 42370
L68420 42340
L68440 42320
L68490 42300
L68520 42300
L68560 42320
L68570 42330
" />
<path d="M68870 42570
L68860 42590
L68820 42600
L68790 42600
L68740 42590
L68720 42560
L68700 42530
L68690 42470
L68690 42430
L68700 42370
L68720 42340
L68740 42320
L68790 42300
L68820 42300
L68860 42320
L68870 42330
" />
</g>
<g style="fill:#00A0A0; fill-opacity:0.0; 
stroke:#00A0A0; stroke-width:0; stroke-opacity:1; 
stroke-linecap:round; stroke-linejoin:round;">
</g>
<g style="fill:#A00000; fill-opacity:0.0; 
stroke:#A00000; stroke-width:60; stroke-opacity:1; 
stroke-linecap:round; stroke-linejoin:round;">
<polyline fill="none;"
points="68000,45000
68500,45500
69000,45000
68000,45000
" /> 
</g>
<g style="fill:#A00000; fill-opacity:0.0; 
stroke:#A00000; stroke-width:0; stroke-opacity:1; 
stroke-linecap:round; stroke-linejoin:round;">
</g>
<g style="fill:#00A000; fill-opacity:1.0; 
stroke:#00A000; stroke-width:100; stroke-opacity:1; 
stroke-linecap:round; stroke-linejoin:round;">
<circle cx="65500" cy="39000" r="160" /> 
</g>
<g style="fill:#00A000; fill-opacity:1.0; 
stroke:#00A000; stroke-width:60; stroke-opacity:1; 
stroke-linecap:round; stroke-linejoin:round;">
<path d="M65500 39500
L65500 39000
" />
<path d="M66000 39500
L65500 39500
" />
</g>
<g style="fill:#00A000; fill-opacity:1.0; 
stroke:#00A000; stroke-width:0; stroke-opacity:1; 
stroke-linecap:round; stroke-linejoin:round;">
</g>
<g style="fill:#00A000; fill-opacity:1.0; 
stroke:#00A000; stroke-width:100; stroke-opacity:1; 
stroke-linecap:round; stroke-linejoin:round;">
<circle cx="65500" cy="43000" r="160" /> 
</g>
<g style="fill:#00A000; fill-opacity:1.0; 
stroke:#00A000; stroke-width:60; stroke-opacity:1; 
stroke-linecap:round; stroke-linejoin:round;">
<path d="M65500 43500
L65500 43000
" />
<path d="M66000 43500
L65500 43500
" />
<path d="M66000 37000
L66000 36500
" />
<path d="M53500 35000
L53500 35500
" />
<path d="M52500 35000
L53500 35000
" />
<path d="M57500 35000
L58500 35000
" />
<path d="M53000 41000
L52500 41000
" />
<path d="M47500 41000
L46500 41000
" />
<path d="M46500 43000
L47500 43000
" />
<path d="M46500 45000
L47500 45000
" />
<path d="M47500 45000
L47500 45500
" />
<path d="M52500 47000
L52500 47500
" />
<path d="M57000 41000
L58000 41000
" />
<path d="M57500 40500
L57500 41000
" />
</g>
<g style="fill:#00A000; fill-opacity:1.0; 
stroke:#00A000; stroke-width:0; stroke-opacity:1; 
stroke-linecap:round; stroke-linejoin:round;">
</g>
<g style="fill:#00A000; fill-opacity:1.0; 
stroke:#00A000; stroke-width:100; stroke-opacity:1; 
stroke-linecap:round; stroke-linejoin:round;">
<circle cx="57500" cy="41000" r="160" /> 
</g>
<g style="fill:#00A000; fill-opacity:1.0; 
stroke:#00A000; stroke-width:60; stroke-opacity:1; 
stroke-linecap:round; stroke-linejoin:round;">
<path d="M57500 35500
L57500 35000
" />
<path d="M58500 35000
L58500 35500
" />
<path d="M46500 38000
L47500 38000
" />
<path d="M47500 40000
L46500 40000
" />
<path d="M47500 38000
L47500 40000
" />
</g>
<g style="fill:#00A000; fill-opacity:1.0; 
stroke:#00A000; stroke-width:0; stroke-opacity:1; 
stroke-linecap:round; stroke-linejoin:round;">
</g>
<g style="fill:#00A000; fill-opacity:1.0; 
stroke:#00A000; stroke-width:100; stroke-opacity:1; 
stroke-linecap:round; stroke-linejoin:round;">
<circle cx="47500" cy="39000" r="160" /> 
</g>
<g style="fill:#00A000; fill-opacity:1.0; 
stroke:#00A000; stroke-width:60; stroke-opacity:1; 
stroke-linecap:round; stroke-linejoin:round;">
<path d="M61000 43000
L61000 43500
" />
<path d="M61000 39000
L61000 37000
" />
</g>
<g style="fill:#00A000; fill-opacity:1.0; 
stroke:#00A000; stroke-width:0; stroke-opacity:1; 
stroke-linecap:round; stroke-linejoin:round;">
</g>
<g style="fill:#00A000; fill-opacity:1.0; 
stroke:#00A000; stroke-width:100; stroke-opacity:1; 
stroke-linecap:round; stroke-linejoin:round;">
<circle cx="61000" cy="38500" r="160" /> 
</g>
<g style="fill:#00A000; fill-opacity:1.0; 
stroke:#00A000; stroke-width:60; stroke-opacity:1; 
stroke-linecap:round; stroke-linejoin:round;">
<path d="M66000 38000
L65500 38000
" />
<path d="M65500 38000
L65500 38500
" />
</g>
<g style="fill:#00A000; fill-opacity:1.0; 
stroke:#00A000; stroke-width:0; stroke-opacity:1; 
stroke-linecap:round; stroke-linejoin:round;">
</g>
<g style="fill:#00A000; fill-opacity:1.0; 
stroke:#00A000; stroke-width:100; stroke-opacity:1; 
stroke-linecap:round; stroke-linejoin:round;">
<circle cx="65500" cy="38500" r="160" /> 
</g>
<g style="fill:#00A000; fill-opacity:1.0; 
stroke:#00A000; stroke-width:60; stroke-opacity:1; 
stroke-linecap:round; stroke-linejoin:round;">
<path d="M66000 41500
L65500 41500
" />
<path d="M65500 41500
L65500 42000
" />
</g>
<g style="fill:#00A000; fill-opacity:1.0; 
stroke:#00A000; stroke-width:0; stroke-opacity:1; 
stroke-linecap:round; stroke-linejoin:round;">
</g>
<g style="fill:#00A000; fill-opacity:1.0; 
stroke:#00A000; stroke-width:100; stroke-opacity:1; 
stroke-linecap:round; stroke-linejoin:round;">
<circle cx="65500" cy="42000" r="160" /> 
</g>
<g style="fill:#00A000; fill-opacity:1.0; 
stroke:#00A000; stroke-width:60; stroke-opacity:1; 
stroke-linecap:round; stroke-linejoin:round;">
<path d="M52500 43000
L69000 43000
" />
<path d="M46500 42000
L68500 42000
" />
<path d="M52500 39000
L68000 39000
" />
<path d="M61000 38500
L67500 38500
" />
<path d="M69000 43000
L69000 39500
" />
<path d="M69000 39500
L69500 39500
" />
<path d="M68500 42000
L68500 40500
" />
<path d="M68500 40500
L69500 40500
" />
<path d="M68000 39000
L68000 41500
" />
<path d="M68000 41500
L69500 41500
" />
<path d="M67500 38500
L67500 42500
" />
<path d="M67500 42500
L69500 42500
" />
</g>
<g style="fill:#00A000; fill-opacity:1.0; 
stroke:#00A000; stroke-width:0; stroke-opacity:1; 
stroke-linecap:round; stroke-linejoin:round;">
</g>
<g style="fill:#A00000; fill-opacity:0.0; 
stroke:#A00000; stroke-width:60; stroke-opacity:1; 
stroke-linecap:round; stroke-linejoin:round;">
<rect x="72000" y="39000" width="2000" height="6000" rx="0" />
<circle cx="71650" cy="39500" r="350" /> 
<path d="M71300 39500
L69500 39500
" />
<path d="M70930 39340
L70580 39340
" />
<path d="M70760 39340
L70760 38740
L70700 38830
L70640 38890
L70580 38910
" />
<circle cx="71650" cy="40500" r="350" /> 
<path d="M71300 40500
L69500 40500
" />
<path d="M70580 39800
L70610 39770
L70670 39740
L70810 39740
L70870 39770
L70900 39800
L70930 39860
L70930 39910
L70900 40000
L70560 40340
L70930 40340
" />
<circle cx="71650" cy="41500" r="350" /> 
<path d="M71300 41500
L69500 41500
" />
<path d="M70560 40740
L70930 40740
L70730 40970
L70810 40970
L70870 41000
L70900 41030
L70930 41090
L70930 41230
L70900 41290
L70870 41310
L70810 41340
L70640 41340
L70580 41310
L70560 41290
" />
<circle cx="71650" cy="42500" r="350" /> 
<path d="M71300 42500
L69500 42500
" />
<path d="M70870 41940
L70870 42340
" />
<path d="M70730 41710
L70580 42140
L70960 42140
" />
<circle cx="71650" cy="43500" r="350" /> 
<path d="M71300 43500
L69500 43500
" />
<path d="M70900 42740
L70610 42740
L70580 43030
L70610 43000
L70670 42970
L70810 42970
L70870 43000
L70900 43030
L70930 43090
L70930 43230
L70900 43290
L70870 43310
L70810 43340
L70670 43340
L70610 43310
L70580 43290
" />
<circle cx="71650" cy="44500" r="350" /> 
<path d="M71300 44500
L69500 44500
" />
<path d="M70870 43740
L70760 43740
L70700 43770
L70670 43800
L70610 43890
L70580 44000
L70580 44230
L70610 44290
L70640 44310
L70700 44340
L70810 44340
L70870 44310
L70900 44290
L70930 44230
L70930 44090
L70900 44030
L70870 44000
L70810 43970
L70700 43970
L70640 44000
L70610 44030
L70580 44090
" />
</g>
<g style="fill:#00A0A0; fill-opacity:0.0; 
stroke:#00A0A0; stroke-width:60; stroke-opacity:1; 
stroke-linecap:round; stroke-linejoin:round;">
<path d="M72710 42430
L72110 42430
L72110 42200
L72140 42140
L72170 42110
L72230 42080
L72310 42080
L72370 42110
L72400 42140
L72430 42200
L72430 42430
" />
<path d="M72710 41510
L72710 41860
" />
<path d="M72710 41680
L72110 41680
L72200 41740
L72260 41800
L72280 41860
" />
<path d="M73660 43270
L73680 43300
L73710 43390
L73710 43450
L73680 43530
L73630 43590
L73570 43620
L73460 43650
L73370 43650
L73260 43620
L73200 43590
L73140 43530
L73110 43450
L73110 43390
L73140 43300
L73170 43270
" />
<path d="M73110 42900
L73110 42790
L73140 42730
L73200 42670
L73310 42650
L73510 42650
L73630 42670
L73680 42730
L73710 42790
L73710 42900
L73680 42960
L73630 43020
L73510 43050
L73310 43050
L73200 43020
L73140 42960
L73110 42900
" />
<path d="M73710 42390
L73110 42390
L73710 42040
L73110 42040
" />
<path d="M73710 41760
L73110 41760
L73710 41410
L73110 41410
" />
<path d="M73770 41270
L73770 40810
" />
<path d="M73110 40410
L73110 40520
L73140 40580
L73170 40610
L73260 40670
L73370 40700
L73600 40700
L73660 40670
L73680 40640
L73710 40580
L73710 40470
L73680 40410
L73660 40380
L73600 40350
L73460 40350
L73400 40380
L73370 40410
L73340 40470
L73340 40580
L73370 40640
L73400 40670
L73460 40700
" />
</g>
<g style="fill:#A000A0; fill-opacity:0.0; 
stroke:#A000A0; stroke-width:60; stroke-opacity:1; 
stroke-linecap:round; stroke-linejoin:round;">
<path d="M69560 42210
L69560 41610
L69790 41610
L69850 41640
L69880 41670
L69910 41730
L69910 41810
L69880 41870
L69850 41900
L69790 41930
L69560 41930
" />
<path d="M70160 42210
L70160 41610
" />
<path d="M70450 42210
L70450 41610
L70800 42210
L70800 41610
" />
<path d="M70940 42270
L71400 42270
" />
<path d="M71510 42040
L71800 42040
" />
<path d="M71460 42210
L71660 41610
L71860 42210
" />
<path d="M72400 42210
L72200 41930
" />
<path d="M72050 42210
L72050 41610
L72280 41610
L72340 41640
L72370 41670
L72400 41730
L72400 41810
L72370 41870
L72340 41900
L72280 41930
L72050 41930
" />
<path d="M73000 42210
L72800 41930
" />
<path d="M72650 42210
L72650 41610
L72880 41610
L72940 41640
L72970 41670
L73000 41730
L73000 41810
L72970 41870
L72940 41900
L72880 41930
L72650 41930
" />
<path d="M73220 42040
L73510 42040
" />
<path d="M73170 42210
L73370 41610
L73570 42210
" />
<path d="M73880 41930
L73880 42210
" />
<path d="M73680 41610
L73880 41930
L74080 41610
" />
<path d="M74270 41980
L74730 41980
" />
<path d="M75270 41610
L75160 41610
L75100 41640
L75070 41670
L75010 41760
L74980 41870
L74980 42100
L75010 42160
L75040 42180
L75100 42210
L75210 42210
L75270 42180
L75300 42160
L75330 42100
L75330 41960
L75300 41900
L75270 41870
L75210 41840
L75100 41840
L75040 41870
L75010 41900
L74980 41960
" />
<path d="M75530 41610
L75930 42210
" />
<path d="M75930 41610
L75530 42210
" />
<path d="M76470 42210
L76120 42210
" />
<path d="M76300 42210
L76300 41610
L76240 41700
L76180 41760
L76120 41780
" />
</g>
<g style="fill:#00A000; fill-opacity:0.0; 
stroke:#00A000; stroke-width:60; stroke-opacity:1; 
stroke-linecap:round; stroke-linejoin:round;">
<path d="M68500 44500
L69500 44500
" />
<path d="M68500 44500
L68500 45000
" />
<path d="M69500 43500
L68500 43500
" />
</g>
<g style="fill:#00A000; fill-opacity:0.0; 
stroke:#00A000; stroke-width:0; stroke-opacity:1; 
stroke-linecap:round; stroke-linejoin:round;">
</g>
<g style="fill:#A00000; fill-opacity:0.0; 
stroke:#A00000; stroke-width:120; stroke-opacity:1; 
stroke-linecap:round; stroke-linejoin:round;">
<rect x="48500" y="40600" width="3000" height="800" rx="0" />
</g>
<g style="fill:#A00000; fill-opacity:0.0; 
stroke:#A00000; stroke-width:60; stroke-opacity:1; 
stroke-linecap:round; stroke-linejoin:round;">
<path d="M48500 41000
L47500 41000
" />
</g>
<g style="fill:#00A0A0; fill-opacity:0.0; 
stroke:#00A0A0; stroke-width:60; stroke-opacity:1; 
stroke-linecap:round; stroke-linejoin:round;">
</g>
<g style="fill:#A00000; fill-opacity:0.0; 
stroke:#A00000; stroke-width:60; stroke-opacity:1; 
stroke-linecap:round; stroke-linejoin:round;">
<path d="M51500 41000
L52500 41000
" />
</g>
<g style="fill:#00A0A0; fill-opacity:0.0; 
stroke:#00A0A0; stroke-width:60; stroke-opacity:1; 
stroke-linecap:round; stroke-linejoin:round;">
<path d="M49930 40390
L49800 40200
" />
<path d="M49710 40390
L49710 39990
L49860 39990
L49900 40010
L49910 40030
L49930 40070
L49930 40130
L49910 40160
L49900 40180
L49860 40200
L49710 40200
" />
<path d="M50280 39990
L50200 39990
L50160 40010
L50140 40030
L50110 40090
L50090 40160
L50090 40320
L50110 40350
L50120 40370
L50160 40390
L50240 40390
L50280 40370
L50300 40350
L50310 40320
L50310 40220
L50300 40180
L50280 40160
L50240 40140
L50160 40140
L50120 40160
L50110 40180
L50090 40220
" />
<path d="M49750 41120
L49530 41120
" />
<path d="M49640 41120
L49640 40720
L49600 40780
L49560 40820
L49530 40840
" />
<path d="M50000 40720
L50040 40720
L50080 40740
L50100 40760
L50120 40800
L50130 40870
L50130 40970
L50120 41050
L50100 41080
L50080 41100
L50040 41120
L50000 41120
L49960 41100
L49940 41080
L49930 41050
L49910 40970
L49910 40870
L49930 40800
L49940 40760
L49960 40740
L50000 40720
" />
<path d="M50310 41120
L50310 40720
" />
<path d="M50340 40970
L50460 41120
" />
<path d="M50460 40860
L50310 41010
" />
</g>
<g style="fill:#A000A0; fill-opacity:0.0; 
stroke:#A000A0; stroke-width:50; stroke-opacity:1; 
stroke-linecap:round; stroke-linejoin:round;">
<path d="M49160 41830
L49200 41840
L49270 41840
L49300 41830
L49310 41810
L49330 41780
L49330 41760
L49310 41730
L49300 41710
L49270 41700
L49210 41680
L49190 41670
L49170 41660
L49160 41630
L49160 41600
L49170 41570
L49190 41560
L49210 41540
L49290 41540
L49330 41560
" />
<path d="M49460 41840
L49460 41540
L49560 41760
L49660 41540
L49660 41840
" />
<path d="M49860 41540
L49890 41540
L49920 41560
L49930 41570
L49940 41600
L49960 41660
L49960 41730
L49940 41780
L49930 41810
L49920 41830
L49890 41840
L49860 41840
L49830 41830
L49820 41810
L49800 41780
L49790 41730
L49790 41660
L49800 41600
L49820 41570
L49830 41560
L49860 41540
" />
<path d="M50220 41540
L50160 41540
L50130 41560
L50120 41570
L50090 41610
L50080 41670
L50080 41780
L50090 41810
L50110 41830
L50130 41840
L50190 41840
L50220 41830
L50230 41810
L50250 41780
L50250 41710
L50230 41680
L50220 41670
L50190 41660
L50130 41660
L50110 41670
L50090 41680
L50080 41710
" />
<path d="M50440 41540
L50470 41540
L50500 41560
L50510 41570
L50520 41600
L50540 41660
L50540 41730
L50520 41780
L50510 41810
L50500 41830
L50470 41840
L50440 41840
L50410 41830
L50400 41810
L50380 41780
L50370 41730
L50370 41660
L50380 41600
L50400 41570
L50410 41560
L50440 41540
" />
<path d="M50640 41540
L50830 41540
L50730 41660
L50770 41660
L50800 41670
L50810 41680
L50830 41710
L50830 41780
L50810 41810
L50800 41830
L50770 41840
L50690 41840
L50660 41830
L50640 41810
" />
</g>
<g style="fill:#A000A0; fill-opacity:0.0; 
stroke:#A000A0; stroke-width:0; stroke-opacity:1; 
stroke-linecap:round; stroke-linejoin:round;">
</g>
<g style="fill:#A00000; fill-opacity:0.0; 
stroke:#A00000; stroke-width:120; stroke-opacity:1; 
stroke-linecap:round; stroke-linejoin:round;">
<rect x="48500" y="42600" width="3000" height="800" rx="0" />
</g>
<g style="fill:#A00000; fill-opacity:0.0; 
stroke:#A00000; stroke-width:60; stroke-opacity:1; 
stroke-linecap:round; stroke-linejoin:round;">
<path d="M48500 43000
L47500 43000
" />
</g>
<g style="fill:#00A0A0; fill-opacity:0.0; 
stroke:#00A0A0; stroke-width:60; stroke-opacity:1; 
stroke-linecap:round; stroke-linejoin:round;">
</g>
<g style="fill:#A00000; fill-opacity:0.0; 
stroke:#A00000; stroke-width:60; stroke-opacity:1; 
stroke-linecap:round; stroke-linejoin:round;">
<path d="M51500 43000
L52500 43000
" />
</g>
<g style="fill:#00A0A0; fill-opacity:0.0; 
stroke:#00A0A0; stroke-width:60; stroke-opacity:1; 
stroke-linecap:round; stroke-linejoin:round;">
<path d="M49950 42390
L49820 42200
" />
<path d="M49730 42390
L49730 41990
L49880 41990
L49920 42010
L49930 42030
L49950 42070
L49950 42130
L49930 42160
L49920 42180
L49880 42200
L49730 42200
" />
<path d="M50180 42350
L50200 42370
L50180 42390
L50160 42370
L50180 42350
L50180 42390
" />
<path d="M50110 42010
L50140 41990
L50240 41990
L50280 42010
L50300 42050
L50300 42090
L50280 42130
L50260 42140
L50220 42160
L50200 42180
L50180 42220
L50180 42240
" />
<path d="M49720 42860
L49720 43120
" />
<path d="M49620 42700
L49530 42990
L49770 42990
" />
<path d="M49930 43120
L49930 42720
" />
<path d="M49960 42970
L50080 43120
" />
<path d="M50080 42860
L49930 43010
" />
<path d="M50210 42720
L50470 42720
L50300 43120
" />
</g>
<g style="fill:#A000A0; fill-opacity:0.0; 
stroke:#A000A0; stroke-width:50; stroke-opacity:1; 
stroke-linecap:round; stroke-linejoin:round;">
<path d="M49160 43830
L49200 43840
L49270 43840
L49300 43830
L49310 43810
L49330 43780
L49330 43760
L49310 43730
L49300 43710
L49270 43700
L49210 43680
L49190 43670
L49170 43660
L49160 43630
L49160 43600
L49170 43570
L49190 43560
L49210 43540
L49290 43540
L49330 43560
" />
<path d="M49460 43840
L49460 43540
L49560 43760
L49660 43540
L49660 43840
" />
<path d="M49860 43540
L49890 43540
L49920 43560
L49930 43570
L49940 43600
L49960 43660
L49960 43730
L49940 43780
L49930 43810
L49920 43830
L49890 43840
L49860 43840
L49830 43830
L49820 43810
L49800 43780
L49790 43730
L49790 43660
L49800 43600
L49820 43570
L49830 43560
L49860 43540
" />
<path d="M50220 43540
L50160 43540
L50130 43560
L50120 43570
L50090 43610
L50080 43670
L50080 43780
L50090 43810
L50110 43830
L50130 43840
L50190 43840
L50220 43830
L50230 43810
L50250 43780
L50250 43710
L50230 43680
L50220 43670
L50190 43660
L50130 43660
L50110 43670
L50090 43680
L50080 43710
" />
<path d="M50440 43540
L50470 43540
L50500 43560
L50510 43570
L50520 43600
L50540 43660
L50540 43730
L50520 43780
L50510 43810
L50500 43830
L50470 43840
L50440 43840
L50410 43830
L50400 43810
L50380 43780
L50370 43730
L50370 43660
L50380 43600
L50400 43570
L50410 43560
L50440 43540
" />
<path d="M50640 43540
L50830 43540
L50730 43660
L50770 43660
L50800 43670
L50810 43680
L50830 43710
L50830 43780
L50810 43810
L50800 43830
L50770 43840
L50690 43840
L50660 43830
L50640 43810
" />
</g> 
</svg>
